G75*
G70*
%OFA0B0*%
%FSLAX24Y24*%
%IPPOS*%
%LPD*%
%AMOC8*
5,1,8,0,0,1.08239X$1,22.5*
%
%ADD10C,0.0051*%
%ADD11C,0.0110*%
%ADD12OC8,0.0560*%
%ADD13C,0.0594*%
%ADD14OC8,0.0520*%
%ADD15OC8,0.0630*%
%ADD16C,0.0787*%
%ADD17C,0.0660*%
%ADD18OC8,0.0750*%
%ADD19C,0.0200*%
%ADD20C,0.0100*%
%ADD21C,0.0400*%
D10*
X007331Y000126D02*
X007331Y004913D01*
X001544Y004913D01*
X002331Y004913D02*
X002433Y005937D01*
X002457Y005937D02*
X002331Y004913D01*
X002229Y005937D01*
X002205Y005937D02*
X002457Y005937D01*
X002382Y005937D02*
X002331Y004913D01*
X002280Y005937D01*
X002205Y005937D02*
X002331Y004913D01*
X002331Y028913D01*
X002433Y027889D01*
X002457Y027889D02*
X002331Y028913D01*
X002229Y027889D01*
X002205Y027889D02*
X002457Y027889D01*
X002382Y027889D02*
X002331Y028913D01*
X002280Y027889D01*
X002205Y027889D02*
X002331Y028913D01*
X001544Y028913D02*
X007331Y028913D01*
X057331Y004913D02*
X057331Y000126D01*
X057331Y000913D02*
X056307Y000811D01*
X056307Y000787D02*
X057331Y000913D01*
X056307Y001015D01*
X056307Y001039D02*
X056307Y000787D01*
X056307Y000862D02*
X057331Y000913D01*
X056307Y000964D01*
X056307Y001039D02*
X057331Y000913D01*
X007331Y000913D01*
X008355Y000811D01*
X008355Y000787D02*
X007331Y000913D01*
X008355Y001015D01*
X008355Y001039D02*
X008355Y000787D01*
X008355Y000862D02*
X007331Y000913D01*
X008355Y000964D01*
X008355Y001039D02*
X007331Y000913D01*
D11*
X030741Y001362D02*
X031587Y001362D01*
X031164Y001362D02*
X031164Y002631D01*
X030741Y002208D01*
X032010Y002419D02*
X032222Y002631D01*
X032645Y002631D01*
X032856Y002419D01*
X032856Y002208D01*
X032010Y001362D01*
X032856Y001362D01*
X033279Y001362D02*
X033279Y001573D01*
X034125Y002419D01*
X034125Y002631D01*
X033279Y002631D01*
X001882Y014713D02*
X001671Y014501D01*
X001248Y014501D01*
X001248Y015136D01*
X001459Y015347D01*
X001671Y015347D01*
X001882Y015136D01*
X001882Y014713D01*
X001248Y014501D02*
X000825Y014924D01*
X000613Y015347D01*
X000825Y015770D02*
X000613Y015981D01*
X000613Y016404D01*
X000825Y016616D01*
X001671Y015770D01*
X001882Y015981D01*
X001882Y016404D01*
X001671Y016616D01*
X000825Y016616D01*
X001671Y017039D02*
X001671Y017250D01*
X001882Y017250D01*
X001882Y017039D01*
X001671Y017039D01*
X001671Y017673D02*
X001882Y017885D01*
X001882Y018308D01*
X001671Y018519D01*
X000825Y018519D01*
X000613Y018308D01*
X000613Y017885D01*
X000825Y017673D01*
X001036Y017673D01*
X001248Y017885D01*
X001248Y018519D01*
X001248Y018942D02*
X001248Y019576D01*
X001459Y019788D01*
X001671Y019788D01*
X001882Y019576D01*
X001882Y019153D01*
X001671Y018942D01*
X001248Y018942D01*
X000825Y019365D01*
X000613Y019788D01*
X000825Y015770D02*
X001671Y015770D01*
D12*
X024831Y010413D03*
X025831Y010413D03*
X026831Y010413D03*
X027831Y010413D03*
X028831Y010413D03*
X029831Y010413D03*
X030831Y010413D03*
X031831Y010413D03*
X032831Y010413D03*
X033831Y010413D03*
X034831Y010413D03*
X035831Y010413D03*
X036831Y010413D03*
X037831Y010413D03*
X038831Y010413D03*
X039831Y010413D03*
X040831Y010413D03*
X041831Y010413D03*
X042831Y010413D03*
X043831Y010413D03*
X043831Y009413D03*
X042831Y009413D03*
X041831Y009413D03*
X040831Y009413D03*
X039831Y009413D03*
X038831Y009413D03*
X037831Y009413D03*
X036831Y009413D03*
X035831Y009413D03*
X034831Y009413D03*
X033831Y009413D03*
X032831Y009413D03*
X031831Y009413D03*
X030831Y009413D03*
X029831Y009413D03*
X028831Y009413D03*
X027831Y009413D03*
X026831Y009413D03*
X025831Y009413D03*
X024831Y009413D03*
X030831Y013413D03*
X031831Y013413D03*
X032831Y013413D03*
X033831Y013413D03*
X034831Y013413D03*
X035831Y013413D03*
X036831Y013413D03*
X037831Y013413D03*
X038831Y013413D03*
X039831Y013413D03*
X039831Y014413D03*
X038831Y014413D03*
X037831Y014413D03*
X036831Y014413D03*
X035831Y014413D03*
X034831Y014413D03*
X033831Y014413D03*
X032831Y014413D03*
X031831Y014413D03*
X030831Y014413D03*
X030831Y019413D03*
X031831Y019413D03*
X032831Y019413D03*
X033831Y019413D03*
X034831Y019413D03*
X035831Y019413D03*
X036831Y019413D03*
X037831Y019413D03*
X038831Y019413D03*
X039831Y019413D03*
X039831Y020413D03*
X038831Y020413D03*
X037831Y020413D03*
X036831Y020413D03*
X035831Y020413D03*
X034831Y020413D03*
X033831Y020413D03*
X032831Y020413D03*
X031831Y020413D03*
X030831Y020413D03*
X030831Y023413D03*
X031831Y023413D03*
X032831Y023413D03*
X033831Y023413D03*
X034831Y023413D03*
X035831Y023413D03*
X036831Y023413D03*
X037831Y023413D03*
X038831Y023413D03*
X039831Y023413D03*
X040831Y023413D03*
X041831Y023413D03*
X042831Y023413D03*
X043831Y023413D03*
X043831Y024413D03*
X042831Y024413D03*
X041831Y024413D03*
X040831Y024413D03*
X039831Y024413D03*
X038831Y024413D03*
X037831Y024413D03*
X036831Y024413D03*
X035831Y024413D03*
X034831Y024413D03*
X033831Y024413D03*
X032831Y024413D03*
X031831Y024413D03*
X030831Y024413D03*
X029831Y024413D03*
X028831Y024413D03*
X027831Y024413D03*
X026831Y024413D03*
X025831Y024413D03*
X024831Y024413D03*
X024831Y023413D03*
X025831Y023413D03*
X026831Y023413D03*
X027831Y023413D03*
X028831Y023413D03*
X029831Y023413D03*
D13*
X015628Y023913D02*
X015034Y023913D01*
X015034Y022913D02*
X015628Y022913D01*
X015628Y021913D02*
X015034Y021913D01*
X015034Y020913D02*
X015628Y020913D01*
X015628Y019913D02*
X015034Y019913D01*
X015034Y018913D02*
X015628Y018913D01*
X015628Y017913D02*
X015034Y017913D01*
X015034Y016913D02*
X015628Y016913D01*
X009628Y016913D02*
X009034Y016913D01*
X009034Y017913D02*
X009628Y017913D01*
X009628Y018913D02*
X009034Y018913D01*
X009034Y019913D02*
X009628Y019913D01*
X009628Y020913D02*
X009034Y020913D01*
X009034Y021913D02*
X009628Y021913D01*
X009628Y022913D02*
X009034Y022913D01*
X009034Y023913D02*
X009628Y023913D01*
X009628Y024913D02*
X009034Y024913D01*
X009034Y025913D02*
X009628Y025913D01*
X009628Y026913D02*
X009034Y026913D01*
X015034Y026913D02*
X015628Y026913D01*
X015628Y025913D02*
X015034Y025913D01*
X015034Y024913D02*
X015628Y024913D01*
X056034Y024413D02*
X056628Y024413D01*
X056628Y025413D02*
X056034Y025413D01*
X056034Y026413D02*
X056628Y026413D01*
X056628Y027413D02*
X056034Y027413D01*
X056034Y028413D02*
X056628Y028413D01*
X056628Y023413D02*
X056034Y023413D01*
X056034Y022413D02*
X056628Y022413D01*
X056628Y021413D02*
X056034Y021413D01*
X056034Y020413D02*
X056628Y020413D01*
X056628Y019413D02*
X056034Y019413D01*
D14*
X050831Y019913D03*
X049831Y019913D03*
X049831Y016913D03*
X050831Y016913D03*
X049331Y014913D03*
X049331Y010913D03*
X049331Y009913D03*
X049331Y005913D03*
X015831Y006413D03*
X015081Y006913D03*
X014331Y006913D03*
X015831Y007413D03*
X014331Y008913D03*
X010331Y008913D03*
X008831Y008913D03*
X007831Y008913D03*
X007831Y010913D03*
X008831Y010913D03*
X010331Y010913D03*
X014331Y010913D03*
X014331Y012913D03*
X015831Y013913D03*
X015081Y014413D03*
X015831Y014913D03*
X014331Y014913D03*
X010331Y014913D03*
X010331Y012913D03*
X008831Y012913D03*
X007831Y012913D03*
X010331Y006913D03*
D15*
X051331Y005913D03*
X053331Y005913D03*
X053331Y007913D03*
X051331Y007913D03*
X051331Y011913D03*
X053331Y011913D03*
X053331Y013913D03*
X051331Y013913D03*
X052331Y024913D03*
X050331Y024913D03*
X013331Y027913D03*
X011331Y027913D03*
D16*
X053110Y016807D02*
X053110Y016019D01*
X055512Y016019D02*
X055512Y016807D01*
X054725Y018303D02*
X053937Y018303D01*
D17*
X056001Y012913D02*
X056661Y012913D01*
X056661Y011913D02*
X056001Y011913D01*
X056001Y010913D02*
X056661Y010913D01*
X056661Y007913D02*
X056001Y007913D01*
X056001Y006913D02*
X056661Y006913D01*
X056661Y005913D02*
X056001Y005913D01*
D18*
X053581Y027913D03*
X052081Y027913D03*
X050581Y027913D03*
D19*
X050831Y027913D01*
X051331Y027413D01*
X051331Y017913D01*
X050331Y017413D02*
X049331Y017413D01*
X049331Y014913D01*
X053331Y013913D02*
X055331Y013913D01*
X055331Y011913D01*
X055331Y009913D01*
X053331Y007913D01*
X053331Y006913D01*
X056331Y006913D01*
X053331Y005913D02*
X052831Y006413D01*
X052831Y011413D01*
X053331Y011913D01*
X051831Y013413D01*
X051831Y027913D01*
X052081Y027913D01*
X050831Y026913D02*
X050331Y026413D01*
X048331Y026413D01*
X048331Y010913D01*
X049331Y009913D01*
X051331Y011913D02*
X050331Y012913D01*
X050331Y017413D01*
X050831Y016913D02*
X050831Y019913D01*
X055331Y021913D02*
X055331Y016413D01*
X055512Y016413D01*
X055331Y016413D02*
X055331Y013913D01*
X055331Y011913D02*
X056331Y011913D01*
X039831Y011913D02*
X039331Y011413D01*
X039331Y009913D01*
X038831Y009413D01*
X039831Y011913D02*
X039831Y013413D01*
X016331Y014413D02*
X016331Y007913D01*
X015831Y007413D01*
X010331Y006913D02*
X010331Y008913D01*
X009331Y009913D01*
X009331Y013413D01*
X009331Y016913D01*
X015831Y014913D02*
X016331Y014413D01*
X009331Y013413D02*
X008831Y012913D01*
X050331Y024913D02*
X050331Y026413D01*
X052331Y026413D02*
X052331Y024913D01*
X055331Y021913D01*
X056331Y026413D02*
X052331Y026413D01*
X048331Y026413D02*
X012831Y026413D01*
X011331Y027913D01*
X009331Y025913D01*
D20*
X009331Y024913D02*
X012831Y021413D01*
X012831Y018413D01*
X016831Y018413D01*
X024831Y010413D01*
X026331Y009913D02*
X026331Y016913D01*
X030331Y020913D01*
X032831Y020913D01*
X032831Y020413D01*
X031831Y020413D02*
X031331Y019913D01*
X031331Y018913D01*
X028331Y015913D01*
X028331Y008913D01*
X026331Y008913D01*
X025831Y009413D01*
X026331Y009913D02*
X026831Y009413D01*
X027331Y009913D02*
X027331Y016913D01*
X026831Y016913D02*
X030331Y020413D01*
X030831Y020413D01*
X033331Y020913D02*
X035331Y020913D01*
X035331Y009913D01*
X035831Y009413D01*
X036331Y009913D02*
X036831Y009413D01*
X036331Y009913D02*
X036331Y011913D01*
X035831Y012413D01*
X034831Y012413D02*
X034831Y011413D01*
X038831Y011413D02*
X039331Y011913D01*
X039331Y017913D01*
X038331Y018913D01*
X038331Y020913D01*
X036831Y020913D01*
X036831Y020413D01*
X037331Y019913D02*
X037831Y020413D01*
X037331Y019913D02*
X037331Y008913D01*
X033331Y008913D01*
X032831Y009413D01*
X033331Y009913D02*
X033331Y015913D01*
X032331Y016913D02*
X034331Y018913D01*
X034331Y019913D01*
X034831Y020413D01*
X036331Y020913D02*
X036831Y021413D01*
X041331Y021413D01*
X041331Y009913D01*
X041831Y009413D01*
X042331Y009913D02*
X042831Y009413D01*
X042331Y009913D02*
X042331Y011913D01*
X041831Y012413D01*
X038831Y013413D02*
X038331Y012913D01*
X038331Y008913D01*
X043831Y008913D01*
X043831Y009413D01*
X048831Y011413D02*
X048831Y018913D01*
X049831Y019913D01*
X049831Y016913D02*
X049831Y006413D01*
X049331Y005913D01*
X033831Y009413D02*
X033331Y009913D01*
X031331Y009913D02*
X031331Y012913D01*
X030831Y013413D01*
X031331Y013913D02*
X031831Y013413D01*
X031331Y013913D02*
X031331Y016913D01*
X033331Y018913D01*
X033331Y020913D01*
X036331Y020913D02*
X036331Y013913D01*
X036831Y013413D01*
X034831Y012413D02*
X033831Y013413D01*
X030331Y015913D02*
X030331Y009913D01*
X030831Y009413D01*
X032331Y008913D02*
X029331Y008913D01*
X028831Y009413D01*
X027831Y009413D02*
X027331Y009913D01*
X026831Y010413D02*
X026831Y016913D01*
X032331Y016913D02*
X032331Y008913D01*
X048831Y011413D02*
X049331Y010913D01*
X015081Y006913D02*
X014831Y006913D01*
X014831Y007413D01*
X010331Y011913D01*
X010331Y012913D01*
X012331Y012913D02*
X014331Y010913D01*
X014331Y012913D02*
X012831Y014413D01*
X012831Y018413D01*
X012331Y020913D02*
X012331Y012913D01*
X012331Y020913D02*
X009331Y023913D01*
D21*
X027331Y016913D03*
X030331Y015913D03*
X033331Y015913D03*
X035831Y012413D03*
X034831Y011413D03*
X038831Y011413D03*
X041831Y012413D03*
X031331Y009913D03*
X051331Y017913D03*
X050831Y026913D03*
M02*
