G75*
G70*
%OFA0B0*%
%FSLAX24Y24*%
%IPPOS*%
%LPD*%
%AMOC8*
5,1,8,0,0,1.08239X$1,22.5*
%
%ADD10OC8,0.0640*%
%ADD11C,0.0674*%
%ADD12OC8,0.0600*%
%ADD13OC8,0.0710*%
%ADD14C,0.0867*%
%ADD15C,0.0740*%
%ADD16C,0.1380*%
%ADD17OC8,0.0830*%
%ADD18C,0.0480*%
D10*
X024831Y009413D03*
X025831Y009413D03*
X026831Y009413D03*
X027831Y009413D03*
X028831Y009413D03*
X029831Y009413D03*
X030831Y009413D03*
X031831Y009413D03*
X032831Y009413D03*
X033831Y009413D03*
X034831Y009413D03*
X035831Y009413D03*
X036831Y009413D03*
X037831Y009413D03*
X038831Y009413D03*
X039831Y009413D03*
X040831Y009413D03*
X041831Y009413D03*
X042831Y009413D03*
X043831Y009413D03*
X043831Y010413D03*
X042831Y010413D03*
X041831Y010413D03*
X040831Y010413D03*
X039831Y010413D03*
X038831Y010413D03*
X037831Y010413D03*
X036831Y010413D03*
X035831Y010413D03*
X034831Y010413D03*
X033831Y010413D03*
X032831Y010413D03*
X031831Y010413D03*
X030831Y010413D03*
X029831Y010413D03*
X028831Y010413D03*
X027831Y010413D03*
X026831Y010413D03*
X025831Y010413D03*
X024831Y010413D03*
X030831Y013413D03*
X031831Y013413D03*
X032831Y013413D03*
X033831Y013413D03*
X034831Y013413D03*
X035831Y013413D03*
X036831Y013413D03*
X037831Y013413D03*
X038831Y013413D03*
X039831Y013413D03*
X039831Y014413D03*
X038831Y014413D03*
X037831Y014413D03*
X036831Y014413D03*
X035831Y014413D03*
X034831Y014413D03*
X033831Y014413D03*
X032831Y014413D03*
X031831Y014413D03*
X030831Y014413D03*
X030831Y019413D03*
X031831Y019413D03*
X032831Y019413D03*
X033831Y019413D03*
X034831Y019413D03*
X035831Y019413D03*
X036831Y019413D03*
X037831Y019413D03*
X038831Y019413D03*
X039831Y019413D03*
X039831Y020413D03*
X038831Y020413D03*
X037831Y020413D03*
X036831Y020413D03*
X035831Y020413D03*
X034831Y020413D03*
X033831Y020413D03*
X032831Y020413D03*
X031831Y020413D03*
X030831Y020413D03*
X030831Y023413D03*
X031831Y023413D03*
X032831Y023413D03*
X033831Y023413D03*
X034831Y023413D03*
X035831Y023413D03*
X036831Y023413D03*
X037831Y023413D03*
X038831Y023413D03*
X039831Y023413D03*
X040831Y023413D03*
X041831Y023413D03*
X042831Y023413D03*
X043831Y023413D03*
X043831Y024413D03*
X042831Y024413D03*
X041831Y024413D03*
X040831Y024413D03*
X039831Y024413D03*
X038831Y024413D03*
X037831Y024413D03*
X036831Y024413D03*
X035831Y024413D03*
X034831Y024413D03*
X033831Y024413D03*
X032831Y024413D03*
X031831Y024413D03*
X030831Y024413D03*
X029831Y024413D03*
X028831Y024413D03*
X027831Y024413D03*
X026831Y024413D03*
X025831Y024413D03*
X024831Y024413D03*
X024831Y023413D03*
X025831Y023413D03*
X026831Y023413D03*
X027831Y023413D03*
X028831Y023413D03*
X029831Y023413D03*
D11*
X015628Y023913D02*
X015034Y023913D01*
X015034Y022913D02*
X015628Y022913D01*
X015628Y021913D02*
X015034Y021913D01*
X015034Y020913D02*
X015628Y020913D01*
X015628Y019913D02*
X015034Y019913D01*
X015034Y018913D02*
X015628Y018913D01*
X015628Y017913D02*
X015034Y017913D01*
X015034Y016913D02*
X015628Y016913D01*
X009628Y016913D02*
X009034Y016913D01*
X009034Y017913D02*
X009628Y017913D01*
X009628Y018913D02*
X009034Y018913D01*
X009034Y019913D02*
X009628Y019913D01*
X009628Y020913D02*
X009034Y020913D01*
X009034Y021913D02*
X009628Y021913D01*
X009628Y022913D02*
X009034Y022913D01*
X009034Y023913D02*
X009628Y023913D01*
X009628Y024913D02*
X009034Y024913D01*
X009034Y025913D02*
X009628Y025913D01*
X009628Y026913D02*
X009034Y026913D01*
X015034Y026913D02*
X015628Y026913D01*
X015628Y025913D02*
X015034Y025913D01*
X015034Y024913D02*
X015628Y024913D01*
X056034Y024413D02*
X056628Y024413D01*
X056628Y025413D02*
X056034Y025413D01*
X056034Y026413D02*
X056628Y026413D01*
X056628Y027413D02*
X056034Y027413D01*
X056034Y028413D02*
X056628Y028413D01*
X056628Y023413D02*
X056034Y023413D01*
X056034Y022413D02*
X056628Y022413D01*
X056628Y021413D02*
X056034Y021413D01*
X056034Y020413D02*
X056628Y020413D01*
X056628Y019413D02*
X056034Y019413D01*
D12*
X015831Y006413D03*
X015081Y006913D03*
X014331Y006913D03*
X015831Y007413D03*
X014331Y008913D03*
X010331Y008913D03*
X008831Y008913D03*
X007831Y008913D03*
X007831Y010913D03*
X008831Y010913D03*
X010331Y010913D03*
X014331Y010913D03*
X014331Y012913D03*
X015831Y013913D03*
X015081Y014413D03*
X015831Y014913D03*
X014331Y014913D03*
X010331Y014913D03*
X010331Y012913D03*
X008831Y012913D03*
X007831Y012913D03*
X010331Y006913D03*
X049331Y005913D03*
X049331Y009913D03*
X049331Y010913D03*
X049331Y014913D03*
X049831Y016913D03*
X050831Y016913D03*
X050831Y019913D03*
X049831Y019913D03*
D13*
X050331Y024913D03*
X052331Y024913D03*
X053331Y013913D03*
X051331Y013913D03*
X051331Y011913D03*
X053331Y011913D03*
X053331Y007913D03*
X051331Y007913D03*
X051331Y005913D03*
X053331Y005913D03*
X013331Y027913D03*
X011331Y027913D03*
D14*
X053110Y016807D02*
X053110Y016019D01*
X055512Y016019D02*
X055512Y016807D01*
X054725Y018303D02*
X053937Y018303D01*
D15*
X056001Y012913D02*
X056661Y012913D01*
X056661Y011913D02*
X056001Y011913D01*
X056001Y010913D02*
X056661Y010913D01*
X056661Y007913D02*
X056001Y007913D01*
X056001Y006913D02*
X056661Y006913D01*
X056661Y005913D02*
X056001Y005913D01*
D16*
X062231Y006913D03*
X062231Y011913D03*
D17*
X053581Y027913D03*
X052081Y027913D03*
X050581Y027913D03*
D18*
X050831Y026913D03*
X051331Y017913D03*
X033331Y015913D03*
X030331Y015913D03*
X027331Y016913D03*
X035831Y012413D03*
X034831Y011413D03*
X038831Y011413D03*
X041831Y012413D03*
X031331Y009913D03*
M02*
