%
M48
M72
T01C0.0240
T02C0.0320
T03C0.0360
T04C0.0400
T05C0.0551
T06C0.1181
T07C0.1260
%
T01
X6202Y8000
X11702Y8000
X12702Y10000
X15202Y13000
X15702Y15000
X11202Y15500
X23702Y8000
X26202Y8000
X29202Y8000
X25702Y11500
X25702Y13500
X29702Y14000
X30202Y13500
X28702Y17000
X29702Y17500
X29202Y18000
X27702Y19500
X32702Y18000
X35202Y17500
X36202Y15500
X40702Y17000
X41702Y15000
X43702Y14000
X46202Y12500
X44202Y10500
X46202Y10000
X48202Y8000
X53702Y7500
X50202Y15500
X54702Y16000
X54702Y20000
X53202Y21500
X52202Y22000
X58202Y24500
X59202Y27500
X51702Y26000
X48702Y28000
X50202Y29000
X46202Y28500
X45702Y31000
X42202Y30000
X34702Y27500
X33702Y29000
X27702Y29000
X25702Y29000
X18702Y27500
X32202Y23000
X35702Y22000
X37202Y21500
X38202Y21500
X38202Y22500
X43702Y17500
X40702Y13500
X40702Y12500
X39702Y9500
T02
X38702Y11000
X38702Y12000
X36702Y12000
X36702Y11000
X33702Y11000
X33702Y12000
X31702Y12000
X31702Y11000
X28702Y11000
X28702Y12000
X26702Y12000
X26702Y11000
X23702Y11000
X23702Y12000
X21702Y12000
X21702Y11000
X18702Y11000
X18702Y12000
X16702Y12000
X16702Y11000
X13702Y11000
X13702Y12000
X11702Y12000
X11702Y11000
X8702Y11000
X8702Y12000
X6702Y12000
X6702Y11000
X3702Y11000
X3702Y12000
X4202Y14500
X6202Y14500
X8202Y14500
X10202Y14500
X12202Y14500
X14202Y14500
X16202Y14500
X18202Y14500
X20202Y14500
X22202Y14500
X22202Y18500
X22202Y19500
X20202Y19500
X20202Y18500
X18202Y18500
X18202Y19500
X16202Y19500
X16202Y18500
X14202Y18500
X14202Y19500
X12202Y19500
X12202Y18500
X10202Y18500
X10202Y19500
X8202Y19500
X8202Y18500
X6202Y18500
X6202Y19500
X4202Y19500
X4202Y18500
X4202Y23500
X3702Y25000
X3702Y26000
X6702Y26000
X6702Y25000
X8702Y25000
X8702Y26000
X11702Y26000
X11702Y25000
X13702Y25000
X13702Y26000
X16702Y26000
X16702Y25000
X16202Y23500
X14202Y23500
X12202Y23500
X10202Y23500
X8202Y23500
X6202Y23500
X18202Y23500
X20202Y23500
X22202Y23500
X21702Y25000
X21702Y26000
X23702Y26000
X23702Y25000
X26702Y25000
X26702Y26000
X28702Y26000
X28702Y25000
X31702Y25000
X31702Y26000
X33702Y26000
X33702Y25000
X36702Y25000
X36702Y26000
X38702Y26000
X38702Y25000
X38202Y23500
X40202Y23500
X42202Y23500
X41702Y25000
X41702Y26000
X43702Y26000
X43702Y25000
X44202Y23500
X46202Y23500
X48202Y23500
X50202Y23500
X52202Y23500
X55452Y27000
X56952Y27000
X58452Y27000
X59202Y29500
X57702Y31000
X56702Y31000
X55202Y29500
X46702Y26000
X46702Y25000
X46202Y19500
X46202Y18500
X48202Y18500
X48202Y19500
X50202Y19500
X50202Y18500
X52202Y18500
X52202Y19500
X52202Y14500
X50202Y14500
X48202Y14500
X46202Y14500
X44202Y14500
X42202Y14500
X40202Y14500
X38202Y14500
X41702Y12000
X41702Y11000
X43702Y11000
X43702Y12000
X46702Y12000
X46702Y11000
X44202Y18500
X44202Y19500
X42202Y19500
X42202Y18500
X40202Y18500
X40202Y19500
X38202Y19500
X38202Y18500
X18702Y25000
X18702Y26000
T03
X25702Y22000
X26702Y22000
X27702Y22000
X28702Y22000
X29702Y22000
X30702Y22000
X31702Y22000
X32702Y22000
X33702Y22000
X34702Y22000
X34702Y21000
X33702Y21000
X32702Y21000
X31702Y21000
X30702Y21000
X29702Y21000
X28702Y21000
X27702Y21000
X26702Y21000
X25702Y21000
X25702Y16000
X26702Y16000
X27702Y16000
X28702Y16000
X29702Y16000
X30702Y16000
X31702Y16000
X32702Y16000
X33702Y16000
X34702Y16000
X34702Y15000
X33702Y15000
X32702Y15000
X31702Y15000
X30702Y15000
X29702Y15000
X28702Y15000
X27702Y15000
X26702Y15000
X25702Y15000
T04
X3702Y5500
X4702Y5500
X5702Y5500
X7702Y5500
X8702Y5500
X9702Y5500
X11702Y5500
X12702Y5500
X13702Y5500
X23702Y5500
X24702Y5500
X25702Y5500
X27702Y5500
X28702Y5500
X29702Y5500
X31702Y5500
X32702Y5500
X33702Y5500
X42702Y5500
X43702Y5500
X44702Y5500
X46702Y5500
X47702Y5500
X48702Y5500
X50702Y5500
X51702Y5500
X52702Y5500
X52702Y31500
X51702Y31500
X50702Y31500
X48702Y31500
X47702Y31500
X46702Y31500
X44702Y31500
X43702Y31500
X42702Y31500
X33702Y31500
X32702Y31500
X31702Y31500
X29702Y31500
X28702Y31500
X27702Y31500
X25702Y31500
X24702Y31500
X23702Y31500
X13702Y31500
X12702Y31500
X11702Y31500
X9702Y31500
X8702Y31500
X7702Y31500
X5702Y31500
X4702Y31500
X3702Y31500
T05
X56119Y22441
X58284Y22441
X58284Y20787
X56119Y20787
X56119Y19134
X58284Y19134
X58284Y17480
X56119Y17480
X56119Y15827
X58284Y15827
X58284Y14173
X56119Y14173
X56119Y12520
X58284Y12520
X58284Y10866
X56119Y10866
X56119Y9213
X58284Y9213
X58284Y7559
X56119Y7559
T06
X56300Y5709
X56300Y24291
T07
X44131Y28319
X17359Y28319
X17359Y8634
X44131Y8634
M30
