G75*
G70*
%OFA0B0*%
%FSLAX24Y24*%
%IPPOS*%
%LPD*%
%AMOC8*
5,1,8,0,0,1.08239X$1,22.5*
%
%ADD10C,0.0000*%
%ADD11C,0.0100*%
%ADD12C,0.0040*%
%ADD13C,0.0060*%
%ADD14R,0.0050X0.0500*%
%ADD15C,0.0120*%
%ADD16C,0.0050*%
%ADD17R,0.0340X0.0240*%
%ADD18C,0.0080*%
%ADD19C,0.0020*%
%ADD20C,0.0070*%
%ADD21R,0.0250X0.0300*%
%ADD22R,0.1100X0.0500*%
%ADD23C,0.0240*%
%ADD24R,0.0240X0.0340*%
D10*
X007331Y004913D02*
X007331Y028913D01*
X057331Y028913D01*
X057331Y004913D01*
X007331Y004913D01*
X012331Y006513D02*
X012331Y007313D01*
X011931Y006913D02*
X012731Y006913D01*
X015431Y006913D02*
X016231Y006913D01*
X015831Y006513D02*
X015831Y007313D01*
X012331Y008513D02*
X012331Y009313D01*
X011931Y008913D02*
X012731Y008913D01*
X008731Y008913D02*
X007931Y008913D01*
X008331Y008513D02*
X008331Y009313D01*
X008331Y010513D02*
X008331Y011313D01*
X007931Y010913D02*
X008731Y010913D01*
X011931Y010913D02*
X012731Y010913D01*
X012331Y010513D02*
X012331Y011313D01*
X012331Y012513D02*
X012331Y013313D01*
X011931Y012913D02*
X012731Y012913D01*
X015831Y014013D02*
X015831Y014813D01*
X015431Y014413D02*
X016231Y014413D01*
X012731Y014913D02*
X011931Y014913D01*
X012331Y014513D02*
X012331Y015313D01*
X008331Y013313D02*
X008331Y012513D01*
X007931Y012913D02*
X008731Y012913D01*
X033931Y009913D02*
X034731Y009913D01*
X034331Y009513D02*
X034331Y010313D01*
X035331Y013513D02*
X035331Y014313D01*
X034931Y013913D02*
X035731Y013913D01*
X048931Y012913D02*
X049731Y012913D01*
X049331Y012513D02*
X049331Y013313D01*
X050931Y012913D02*
X051731Y012913D01*
X051331Y012513D02*
X051331Y013313D01*
X052931Y012913D02*
X053731Y012913D01*
X053331Y012513D02*
X053331Y013313D01*
X059931Y011913D02*
X060731Y011913D01*
X060331Y011513D02*
X060331Y012313D01*
X061581Y011913D02*
X061583Y011963D01*
X061589Y012013D01*
X061599Y012063D01*
X061612Y012111D01*
X061629Y012159D01*
X061650Y012205D01*
X061674Y012249D01*
X061702Y012291D01*
X061733Y012331D01*
X061767Y012368D01*
X061804Y012403D01*
X061843Y012434D01*
X061884Y012463D01*
X061928Y012488D01*
X061974Y012510D01*
X062021Y012528D01*
X062069Y012542D01*
X062118Y012553D01*
X062168Y012560D01*
X062218Y012563D01*
X062269Y012562D01*
X062319Y012557D01*
X062369Y012548D01*
X062417Y012536D01*
X062465Y012519D01*
X062511Y012499D01*
X062556Y012476D01*
X062599Y012449D01*
X062639Y012419D01*
X062677Y012386D01*
X062712Y012350D01*
X062745Y012311D01*
X062774Y012270D01*
X062800Y012227D01*
X062823Y012182D01*
X062842Y012135D01*
X062857Y012087D01*
X062869Y012038D01*
X062877Y011988D01*
X062881Y011938D01*
X062881Y011888D01*
X062877Y011838D01*
X062869Y011788D01*
X062857Y011739D01*
X062842Y011691D01*
X062823Y011644D01*
X062800Y011599D01*
X062774Y011556D01*
X062745Y011515D01*
X062712Y011476D01*
X062677Y011440D01*
X062639Y011407D01*
X062599Y011377D01*
X062556Y011350D01*
X062511Y011327D01*
X062465Y011307D01*
X062417Y011290D01*
X062369Y011278D01*
X062319Y011269D01*
X062269Y011264D01*
X062218Y011263D01*
X062168Y011266D01*
X062118Y011273D01*
X062069Y011284D01*
X062021Y011298D01*
X061974Y011316D01*
X061928Y011338D01*
X061884Y011363D01*
X061843Y011392D01*
X061804Y011423D01*
X061767Y011458D01*
X061733Y011495D01*
X061702Y011535D01*
X061674Y011577D01*
X061650Y011621D01*
X061629Y011667D01*
X061612Y011715D01*
X061599Y011763D01*
X061589Y011813D01*
X061583Y011863D01*
X061581Y011913D01*
X049331Y008313D02*
X049331Y007513D01*
X048931Y007913D02*
X049731Y007913D01*
X051331Y007313D02*
X051331Y006513D01*
X050931Y006913D02*
X051731Y006913D01*
X052931Y006913D02*
X053731Y006913D01*
X053331Y006513D02*
X053331Y007313D01*
X059931Y006913D02*
X060731Y006913D01*
X060331Y006513D02*
X060331Y007313D01*
X061581Y006913D02*
X061583Y006963D01*
X061589Y007013D01*
X061599Y007063D01*
X061612Y007111D01*
X061629Y007159D01*
X061650Y007205D01*
X061674Y007249D01*
X061702Y007291D01*
X061733Y007331D01*
X061767Y007368D01*
X061804Y007403D01*
X061843Y007434D01*
X061884Y007463D01*
X061928Y007488D01*
X061974Y007510D01*
X062021Y007528D01*
X062069Y007542D01*
X062118Y007553D01*
X062168Y007560D01*
X062218Y007563D01*
X062269Y007562D01*
X062319Y007557D01*
X062369Y007548D01*
X062417Y007536D01*
X062465Y007519D01*
X062511Y007499D01*
X062556Y007476D01*
X062599Y007449D01*
X062639Y007419D01*
X062677Y007386D01*
X062712Y007350D01*
X062745Y007311D01*
X062774Y007270D01*
X062800Y007227D01*
X062823Y007182D01*
X062842Y007135D01*
X062857Y007087D01*
X062869Y007038D01*
X062877Y006988D01*
X062881Y006938D01*
X062881Y006888D01*
X062877Y006838D01*
X062869Y006788D01*
X062857Y006739D01*
X062842Y006691D01*
X062823Y006644D01*
X062800Y006599D01*
X062774Y006556D01*
X062745Y006515D01*
X062712Y006476D01*
X062677Y006440D01*
X062639Y006407D01*
X062599Y006377D01*
X062556Y006350D01*
X062511Y006327D01*
X062465Y006307D01*
X062417Y006290D01*
X062369Y006278D01*
X062319Y006269D01*
X062269Y006264D01*
X062218Y006263D01*
X062168Y006266D01*
X062118Y006273D01*
X062069Y006284D01*
X062021Y006298D01*
X061974Y006316D01*
X061928Y006338D01*
X061884Y006363D01*
X061843Y006392D01*
X061804Y006423D01*
X061767Y006458D01*
X061733Y006495D01*
X061702Y006535D01*
X061674Y006577D01*
X061650Y006621D01*
X061629Y006667D01*
X061612Y006715D01*
X061599Y006763D01*
X061589Y006813D01*
X061583Y006863D01*
X061581Y006913D01*
X054331Y016013D02*
X054331Y016813D01*
X053931Y016413D02*
X054731Y016413D01*
X050731Y016913D02*
X049931Y016913D01*
X050331Y016513D02*
X050331Y017313D01*
X050331Y019513D02*
X050331Y020313D01*
X049931Y019913D02*
X050731Y019913D01*
X056331Y023513D02*
X056331Y024313D01*
X055931Y023913D02*
X056731Y023913D01*
X051731Y024913D02*
X050931Y024913D01*
X051331Y024513D02*
X051331Y025313D01*
X051331Y027513D02*
X051331Y028313D01*
X050931Y027913D02*
X051731Y027913D01*
X034731Y023913D02*
X033931Y023913D01*
X034331Y023513D02*
X034331Y024313D01*
X035331Y020313D02*
X035331Y019513D01*
X034931Y019913D02*
X035731Y019913D01*
X015731Y021913D02*
X014931Y021913D01*
X015331Y021513D02*
X015331Y022313D01*
X009731Y021913D02*
X008931Y021913D01*
X009331Y021513D02*
X009331Y022313D01*
X012331Y027513D02*
X012331Y028313D01*
X011931Y027913D02*
X012731Y027913D01*
D11*
X014081Y027413D02*
X015831Y027413D01*
X015831Y016413D01*
X014081Y016413D01*
X014081Y027413D01*
X015831Y027413D02*
X016581Y027413D01*
X016581Y016413D01*
X015831Y016413D01*
X010581Y016413D02*
X009831Y016413D01*
X009831Y027413D01*
X010581Y027413D01*
X010581Y016413D01*
X009831Y016413D02*
X008081Y016413D01*
X008081Y027413D01*
X009831Y027413D01*
X055081Y028913D02*
X055081Y018913D01*
X056831Y018913D01*
X056831Y028913D01*
X057581Y028913D01*
X057581Y018913D01*
X056831Y018913D01*
X056831Y028913D02*
X055081Y028913D01*
D12*
X057851Y028745D02*
X057851Y028625D01*
X057911Y028565D01*
X058151Y028565D01*
X058211Y028625D01*
X058211Y028745D01*
X058151Y028805D01*
X057911Y028805D02*
X057851Y028745D01*
X051186Y020873D02*
X050946Y020873D01*
X050946Y020693D01*
X051066Y020753D01*
X051126Y020753D01*
X051186Y020693D01*
X051186Y020573D01*
X051126Y020513D01*
X051006Y020513D01*
X050946Y020573D01*
X050818Y020573D02*
X050818Y020813D01*
X050758Y020873D01*
X050578Y020873D01*
X050578Y020513D01*
X050758Y020513D01*
X050818Y020573D01*
X050449Y020513D02*
X050209Y020513D01*
X050209Y020873D01*
X050449Y020873D01*
X050329Y020693D02*
X050209Y020693D01*
X050081Y020513D02*
X049841Y020513D01*
X049841Y020873D01*
X057430Y018510D02*
X057507Y018433D01*
X057584Y018433D01*
X057660Y018510D01*
X057660Y018893D01*
X057584Y018893D02*
X057737Y018893D01*
X057891Y018740D02*
X058044Y018893D01*
X058044Y018433D01*
X057891Y018433D02*
X058198Y018433D01*
X051186Y017693D02*
X050946Y017693D01*
X051126Y017873D01*
X051126Y017513D01*
X050818Y017573D02*
X050758Y017513D01*
X050578Y017513D01*
X050578Y017873D01*
X050758Y017873D01*
X050818Y017813D01*
X050818Y017573D01*
X050449Y017513D02*
X050209Y017513D01*
X050209Y017873D01*
X050449Y017873D01*
X050329Y017693D02*
X050209Y017693D01*
X050081Y017513D02*
X049841Y017513D01*
X049841Y017873D01*
X017211Y026756D02*
X017211Y026816D01*
X017151Y026877D01*
X016851Y026877D01*
X016851Y026937D02*
X016851Y026816D01*
X017031Y027065D02*
X017031Y027305D01*
X017211Y027245D02*
X016851Y027245D01*
X017031Y027065D01*
X017211Y026756D02*
X017151Y026696D01*
X011211Y026756D02*
X011211Y026816D01*
X011151Y026877D01*
X010851Y026877D01*
X010851Y026937D02*
X010851Y026816D01*
X010911Y027065D02*
X010851Y027125D01*
X010851Y027245D01*
X010911Y027305D01*
X010971Y027305D01*
X011031Y027245D01*
X011091Y027305D01*
X011151Y027305D01*
X011211Y027245D01*
X011211Y027125D01*
X011151Y027065D01*
X011031Y027185D02*
X011031Y027245D01*
X011211Y026756D02*
X011151Y026696D01*
X009066Y013873D02*
X009066Y013513D01*
X008946Y013513D02*
X009186Y013513D01*
X008946Y013753D02*
X009066Y013873D01*
X008818Y013813D02*
X008758Y013873D01*
X008578Y013873D01*
X008578Y013513D01*
X008758Y013513D01*
X008818Y013573D01*
X008818Y013813D01*
X008449Y013873D02*
X008209Y013873D01*
X008209Y013513D01*
X008449Y013513D01*
X008329Y013693D02*
X008209Y013693D01*
X008081Y013513D02*
X007841Y013513D01*
X007841Y013873D01*
X007841Y011873D02*
X007841Y011513D01*
X008081Y011513D01*
X008209Y011513D02*
X008209Y011873D01*
X008449Y011873D01*
X008578Y011873D02*
X008758Y011873D01*
X008818Y011813D01*
X008818Y011573D01*
X008758Y011513D01*
X008578Y011513D01*
X008578Y011873D01*
X008329Y011693D02*
X008209Y011693D01*
X008209Y011513D02*
X008449Y011513D01*
X008946Y011513D02*
X009186Y011753D01*
X009186Y011813D01*
X009126Y011873D01*
X009006Y011873D01*
X008946Y011813D01*
X008946Y011513D02*
X009186Y011513D01*
X009126Y009873D02*
X009186Y009813D01*
X009186Y009753D01*
X009126Y009693D01*
X009186Y009633D01*
X009186Y009573D01*
X009126Y009513D01*
X009006Y009513D01*
X008946Y009573D01*
X008818Y009573D02*
X008818Y009813D01*
X008758Y009873D01*
X008578Y009873D01*
X008578Y009513D01*
X008758Y009513D01*
X008818Y009573D01*
X008946Y009813D02*
X009006Y009873D01*
X009126Y009873D01*
X009126Y009693D02*
X009066Y009693D01*
X008449Y009513D02*
X008209Y009513D01*
X008209Y009873D01*
X008449Y009873D01*
X008329Y009693D02*
X008209Y009693D01*
X008081Y009513D02*
X007841Y009513D01*
X007841Y009873D01*
D13*
X007831Y009413D02*
X007831Y009263D01*
X007831Y009413D02*
X008331Y009413D01*
X008831Y009413D01*
X008831Y009263D01*
X008721Y008601D02*
X008695Y008570D01*
X008666Y008541D01*
X008634Y008515D01*
X008601Y008492D01*
X008566Y008472D01*
X008529Y008454D01*
X008491Y008439D01*
X008452Y008428D01*
X008412Y008420D01*
X008372Y008415D01*
X008331Y008413D01*
X008831Y008413D01*
X008831Y008563D01*
X008331Y008413D02*
X007831Y008413D01*
X007831Y008563D01*
X007941Y008601D02*
X007967Y008570D01*
X007996Y008541D01*
X008028Y008515D01*
X008061Y008492D01*
X008096Y008472D01*
X008133Y008454D01*
X008171Y008439D01*
X008210Y008428D01*
X008250Y008420D01*
X008290Y008415D01*
X008331Y008413D01*
X007941Y009225D02*
X007967Y009256D01*
X007996Y009285D01*
X008028Y009311D01*
X008061Y009334D01*
X008096Y009354D01*
X008133Y009372D01*
X008171Y009387D01*
X008210Y009398D01*
X008250Y009406D01*
X008290Y009411D01*
X008331Y009413D01*
X008531Y008913D02*
X008529Y008887D01*
X008524Y008861D01*
X008516Y008836D01*
X008504Y008813D01*
X008490Y008791D01*
X008472Y008772D01*
X008453Y008754D01*
X008431Y008740D01*
X008408Y008728D01*
X008383Y008720D01*
X008357Y008715D01*
X008331Y008713D01*
X008721Y009225D02*
X008695Y009256D01*
X008666Y009285D01*
X008634Y009311D01*
X008601Y009334D01*
X008566Y009354D01*
X008529Y009372D01*
X008491Y009387D01*
X008452Y009398D01*
X008412Y009406D01*
X008372Y009411D01*
X008331Y009413D01*
X011081Y009263D02*
X011081Y008563D01*
X011083Y008546D01*
X011087Y008529D01*
X011094Y008513D01*
X011104Y008499D01*
X011117Y008486D01*
X011131Y008476D01*
X011147Y008469D01*
X011164Y008465D01*
X011181Y008463D01*
X011331Y008463D01*
X011381Y008513D01*
X013281Y008513D01*
X013331Y008463D01*
X013481Y008463D01*
X013498Y008465D01*
X013515Y008469D01*
X013531Y008476D01*
X013545Y008486D01*
X013558Y008499D01*
X013568Y008513D01*
X013575Y008529D01*
X013579Y008546D01*
X013581Y008563D01*
X013581Y009263D01*
X013579Y009280D01*
X013575Y009297D01*
X013568Y009313D01*
X013558Y009327D01*
X013545Y009340D01*
X013531Y009350D01*
X013515Y009357D01*
X013498Y009361D01*
X013481Y009363D01*
X013331Y009363D01*
X013281Y009313D01*
X011381Y009313D01*
X011331Y009363D01*
X011181Y009363D01*
X011164Y009361D01*
X011147Y009357D01*
X011131Y009350D01*
X011117Y009340D01*
X011104Y009327D01*
X011094Y009313D01*
X011087Y009297D01*
X011083Y009280D01*
X011081Y009263D01*
X011181Y010463D02*
X011331Y010463D01*
X011381Y010513D01*
X013281Y010513D01*
X013331Y010463D01*
X013481Y010463D01*
X013498Y010465D01*
X013515Y010469D01*
X013531Y010476D01*
X013545Y010486D01*
X013558Y010499D01*
X013568Y010513D01*
X013575Y010529D01*
X013579Y010546D01*
X013581Y010563D01*
X013581Y011263D01*
X013579Y011280D01*
X013575Y011297D01*
X013568Y011313D01*
X013558Y011327D01*
X013545Y011340D01*
X013531Y011350D01*
X013515Y011357D01*
X013498Y011361D01*
X013481Y011363D01*
X013331Y011363D01*
X013281Y011313D01*
X011381Y011313D01*
X011331Y011363D01*
X011181Y011363D01*
X011164Y011361D01*
X011147Y011357D01*
X011131Y011350D01*
X011117Y011340D01*
X011104Y011327D01*
X011094Y011313D01*
X011087Y011297D01*
X011083Y011280D01*
X011081Y011263D01*
X011081Y010563D01*
X011083Y010546D01*
X011087Y010529D01*
X011094Y010513D01*
X011104Y010499D01*
X011117Y010486D01*
X011131Y010476D01*
X011147Y010469D01*
X011164Y010465D01*
X011181Y010463D01*
X008831Y010413D02*
X008831Y010563D01*
X008831Y010413D02*
X008331Y010413D01*
X007831Y010413D01*
X007831Y010563D01*
X007941Y010601D02*
X007967Y010570D01*
X007996Y010541D01*
X008028Y010515D01*
X008061Y010492D01*
X008096Y010472D01*
X008133Y010454D01*
X008171Y010439D01*
X008210Y010428D01*
X008250Y010420D01*
X008290Y010415D01*
X008331Y010413D01*
X007941Y011225D02*
X007967Y011256D01*
X007996Y011285D01*
X008028Y011311D01*
X008061Y011334D01*
X008096Y011354D01*
X008133Y011372D01*
X008171Y011387D01*
X008210Y011398D01*
X008250Y011406D01*
X008290Y011411D01*
X008331Y011413D01*
X007831Y011413D01*
X007831Y011263D01*
X008331Y011413D02*
X008831Y011413D01*
X008831Y011263D01*
X008721Y010601D02*
X008695Y010570D01*
X008666Y010541D01*
X008634Y010515D01*
X008601Y010492D01*
X008566Y010472D01*
X008529Y010454D01*
X008491Y010439D01*
X008452Y010428D01*
X008412Y010420D01*
X008372Y010415D01*
X008331Y010413D01*
X008721Y011225D02*
X008695Y011256D01*
X008666Y011285D01*
X008634Y011311D01*
X008601Y011334D01*
X008566Y011354D01*
X008529Y011372D01*
X008491Y011387D01*
X008452Y011398D01*
X008412Y011406D01*
X008372Y011411D01*
X008331Y011413D01*
X008531Y010913D02*
X008529Y010887D01*
X008524Y010861D01*
X008516Y010836D01*
X008504Y010813D01*
X008490Y010791D01*
X008472Y010772D01*
X008453Y010754D01*
X008431Y010740D01*
X008408Y010728D01*
X008383Y010720D01*
X008357Y010715D01*
X008331Y010713D01*
X008331Y012413D02*
X007831Y012413D01*
X007831Y012563D01*
X008331Y012413D02*
X008831Y012413D01*
X008831Y012563D01*
X008721Y013225D02*
X008695Y013256D01*
X008666Y013285D01*
X008634Y013311D01*
X008601Y013334D01*
X008566Y013354D01*
X008529Y013372D01*
X008491Y013387D01*
X008452Y013398D01*
X008412Y013406D01*
X008372Y013411D01*
X008331Y013413D01*
X007831Y013413D01*
X007831Y013263D01*
X008331Y013413D02*
X008831Y013413D01*
X008831Y013263D01*
X008721Y012601D02*
X008695Y012570D01*
X008666Y012541D01*
X008634Y012515D01*
X008601Y012492D01*
X008566Y012472D01*
X008529Y012454D01*
X008491Y012439D01*
X008452Y012428D01*
X008412Y012420D01*
X008372Y012415D01*
X008331Y012413D01*
X007941Y013225D02*
X007967Y013256D01*
X007996Y013285D01*
X008028Y013311D01*
X008061Y013334D01*
X008096Y013354D01*
X008133Y013372D01*
X008171Y013387D01*
X008210Y013398D01*
X008250Y013406D01*
X008290Y013411D01*
X008331Y013413D01*
X008531Y012913D02*
X008529Y012887D01*
X008524Y012861D01*
X008516Y012836D01*
X008504Y012813D01*
X008490Y012791D01*
X008472Y012772D01*
X008453Y012754D01*
X008431Y012740D01*
X008408Y012728D01*
X008383Y012720D01*
X008357Y012715D01*
X008331Y012713D01*
X008331Y012413D02*
X008290Y012415D01*
X008250Y012420D01*
X008210Y012428D01*
X008171Y012439D01*
X008133Y012454D01*
X008096Y012472D01*
X008061Y012492D01*
X008028Y012515D01*
X007996Y012541D01*
X007967Y012570D01*
X007941Y012601D01*
X011081Y012563D02*
X011081Y013263D01*
X011083Y013280D01*
X011087Y013297D01*
X011094Y013313D01*
X011104Y013327D01*
X011117Y013340D01*
X011131Y013350D01*
X011147Y013357D01*
X011164Y013361D01*
X011181Y013363D01*
X011331Y013363D01*
X011381Y013313D01*
X013281Y013313D01*
X013331Y013363D01*
X013481Y013363D01*
X013498Y013361D01*
X013515Y013357D01*
X013531Y013350D01*
X013545Y013340D01*
X013558Y013327D01*
X013568Y013313D01*
X013575Y013297D01*
X013579Y013280D01*
X013581Y013263D01*
X013581Y012563D01*
X013579Y012546D01*
X013575Y012529D01*
X013568Y012513D01*
X013558Y012499D01*
X013545Y012486D01*
X013531Y012476D01*
X013515Y012469D01*
X013498Y012465D01*
X013481Y012463D01*
X013331Y012463D01*
X013281Y012513D01*
X011381Y012513D01*
X011331Y012463D01*
X011181Y012463D01*
X011164Y012465D01*
X011147Y012469D01*
X011131Y012476D01*
X011117Y012486D01*
X011104Y012499D01*
X011094Y012513D01*
X011087Y012529D01*
X011083Y012546D01*
X011081Y012563D01*
X016531Y013771D02*
X016531Y015055D01*
X016531Y013771D02*
X016488Y013727D01*
X016443Y013687D01*
X016395Y013649D01*
X016345Y013614D01*
X016293Y013583D01*
X016239Y013555D01*
X016183Y013531D01*
X016126Y013510D01*
X016068Y013493D01*
X016008Y013480D01*
X015948Y013470D01*
X015888Y013465D01*
X015827Y013463D01*
X015766Y013465D01*
X015705Y013471D01*
X015645Y013481D01*
X015586Y013495D01*
X015528Y013513D01*
X015471Y013534D01*
X015415Y013559D01*
X015362Y013587D01*
X015310Y013619D01*
X015260Y013654D01*
X015212Y013692D01*
X015168Y013733D01*
X015125Y013777D01*
X015086Y013823D01*
X015050Y013872D01*
X015017Y013923D01*
X014987Y013977D01*
X014961Y014031D01*
X014961Y014795D02*
X014987Y014849D01*
X015017Y014903D01*
X015050Y014954D01*
X015086Y015003D01*
X015125Y015049D01*
X015168Y015093D01*
X015212Y015134D01*
X015260Y015172D01*
X015310Y015207D01*
X015362Y015239D01*
X015415Y015267D01*
X015471Y015292D01*
X015528Y015313D01*
X015586Y015331D01*
X015645Y015345D01*
X015705Y015355D01*
X015766Y015361D01*
X015827Y015363D01*
X015888Y015361D01*
X015948Y015356D01*
X016008Y015346D01*
X016068Y015333D01*
X016126Y015316D01*
X016183Y015295D01*
X016239Y015271D01*
X016293Y015243D01*
X016345Y015212D01*
X016395Y015177D01*
X016443Y015139D01*
X016488Y015099D01*
X016531Y015055D01*
X013581Y015263D02*
X013581Y014563D01*
X013579Y014546D01*
X013575Y014529D01*
X013568Y014513D01*
X013558Y014499D01*
X013545Y014486D01*
X013531Y014476D01*
X013515Y014469D01*
X013498Y014465D01*
X013481Y014463D01*
X013331Y014463D01*
X013281Y014513D01*
X011381Y014513D01*
X011331Y014463D01*
X011181Y014463D01*
X011164Y014465D01*
X011147Y014469D01*
X011131Y014476D01*
X011117Y014486D01*
X011104Y014499D01*
X011094Y014513D01*
X011087Y014529D01*
X011083Y014546D01*
X011081Y014563D01*
X011081Y015263D01*
X011083Y015280D01*
X011087Y015297D01*
X011094Y015313D01*
X011104Y015327D01*
X011117Y015340D01*
X011131Y015350D01*
X011147Y015357D01*
X011164Y015361D01*
X011181Y015363D01*
X011331Y015363D01*
X011381Y015313D01*
X013281Y015313D01*
X013331Y015363D01*
X013481Y015363D01*
X013498Y015361D01*
X013515Y015357D01*
X013531Y015350D01*
X013545Y015340D01*
X013558Y015327D01*
X013568Y015313D01*
X013575Y015297D01*
X013579Y015280D01*
X013581Y015263D01*
X028831Y015663D02*
X028831Y012163D01*
X030531Y012163D01*
X030531Y012213D01*
X031131Y012213D01*
X031131Y012163D01*
X031681Y012163D01*
X031831Y012363D01*
X032031Y012363D01*
X032631Y012363D01*
X032831Y012363D01*
X032981Y012163D01*
X034531Y012163D01*
X034531Y012563D01*
X034531Y012663D01*
X032631Y012663D01*
X032031Y012663D01*
X029331Y012663D01*
X029331Y015163D01*
X041331Y015163D01*
X041331Y012663D01*
X039631Y012663D01*
X039031Y012663D01*
X036131Y012663D01*
X036131Y012563D01*
X036131Y012163D01*
X034531Y012163D01*
X034531Y012663D02*
X034531Y012963D01*
X036131Y012963D01*
X036131Y012663D01*
X036131Y012163D02*
X038681Y012163D01*
X038831Y012363D01*
X039031Y012363D01*
X039631Y012363D01*
X039631Y012563D01*
X039631Y012663D01*
X039631Y012363D02*
X039831Y012363D01*
X039981Y012163D01*
X041831Y012163D01*
X041831Y015663D01*
X041331Y015663D01*
X041331Y015763D01*
X040831Y015763D01*
X040831Y015663D01*
X035581Y015663D01*
X035581Y015763D01*
X035081Y015763D01*
X035081Y015663D01*
X029831Y015663D01*
X029831Y015763D01*
X029331Y015763D01*
X029331Y015663D01*
X028831Y015663D01*
X028831Y018163D02*
X030531Y018163D01*
X030531Y018213D01*
X031131Y018213D01*
X031131Y018163D01*
X031681Y018163D01*
X031831Y018363D01*
X032031Y018363D01*
X032631Y018363D01*
X032831Y018363D01*
X032981Y018163D01*
X034531Y018163D01*
X034531Y018563D01*
X034531Y018663D01*
X032631Y018663D01*
X032031Y018663D01*
X029331Y018663D01*
X029331Y021163D01*
X041331Y021163D01*
X041331Y018663D01*
X039631Y018663D01*
X039031Y018663D01*
X036131Y018663D01*
X036131Y018563D01*
X036131Y018163D01*
X034531Y018163D01*
X034531Y018663D02*
X034531Y018963D01*
X036131Y018963D01*
X036131Y018663D01*
X036131Y018163D02*
X038681Y018163D01*
X038831Y018363D01*
X039031Y018363D01*
X039631Y018363D01*
X039631Y018563D01*
X039631Y018663D01*
X039631Y018363D02*
X039831Y018363D01*
X039981Y018163D01*
X041831Y018163D01*
X041831Y021663D01*
X041331Y021663D01*
X041331Y021763D01*
X040831Y021763D01*
X040831Y021663D01*
X035581Y021663D01*
X035581Y021763D01*
X035081Y021763D01*
X035081Y021663D01*
X029831Y021663D01*
X029831Y021763D01*
X029331Y021763D01*
X029331Y021663D01*
X028831Y021663D01*
X028831Y018163D01*
X032031Y018363D02*
X032031Y018563D01*
X032031Y018663D01*
X032631Y018663D02*
X032631Y018563D01*
X032631Y018363D01*
X039031Y018363D02*
X039031Y018563D01*
X039031Y018663D01*
X049831Y019413D02*
X049831Y019563D01*
X049831Y019413D02*
X050331Y019413D01*
X050831Y019413D01*
X050831Y019563D01*
X050721Y020225D02*
X050695Y020256D01*
X050666Y020285D01*
X050634Y020311D01*
X050601Y020334D01*
X050566Y020354D01*
X050529Y020372D01*
X050491Y020387D01*
X050452Y020398D01*
X050412Y020406D01*
X050372Y020411D01*
X050331Y020413D01*
X049831Y020413D01*
X049831Y020263D01*
X050331Y020413D02*
X050831Y020413D01*
X050831Y020263D01*
X050721Y019601D02*
X050695Y019570D01*
X050666Y019541D01*
X050634Y019515D01*
X050601Y019492D01*
X050566Y019472D01*
X050529Y019454D01*
X050491Y019439D01*
X050452Y019428D01*
X050412Y019420D01*
X050372Y019415D01*
X050331Y019413D01*
X049941Y020225D02*
X049967Y020256D01*
X049996Y020285D01*
X050028Y020311D01*
X050061Y020334D01*
X050096Y020354D01*
X050133Y020372D01*
X050171Y020387D01*
X050210Y020398D01*
X050250Y020406D01*
X050290Y020411D01*
X050331Y020413D01*
X050531Y019913D02*
X050529Y019887D01*
X050524Y019861D01*
X050516Y019836D01*
X050504Y019813D01*
X050490Y019791D01*
X050472Y019772D01*
X050453Y019754D01*
X050431Y019740D01*
X050408Y019728D01*
X050383Y019720D01*
X050357Y019715D01*
X050331Y019713D01*
X050331Y019413D02*
X050290Y019415D01*
X050250Y019420D01*
X050210Y019428D01*
X050171Y019439D01*
X050133Y019454D01*
X050096Y019472D01*
X050061Y019492D01*
X050028Y019515D01*
X049996Y019541D01*
X049967Y019570D01*
X049941Y019601D01*
X049831Y017413D02*
X049831Y017263D01*
X049831Y017413D02*
X050331Y017413D01*
X050831Y017413D01*
X050831Y017263D01*
X050721Y016601D02*
X050695Y016570D01*
X050666Y016541D01*
X050634Y016515D01*
X050601Y016492D01*
X050566Y016472D01*
X050529Y016454D01*
X050491Y016439D01*
X050452Y016428D01*
X050412Y016420D01*
X050372Y016415D01*
X050331Y016413D01*
X050831Y016413D01*
X050831Y016563D01*
X050331Y016413D02*
X049831Y016413D01*
X049831Y016563D01*
X049941Y016601D02*
X049967Y016570D01*
X049996Y016541D01*
X050028Y016515D01*
X050061Y016492D01*
X050096Y016472D01*
X050133Y016454D01*
X050171Y016439D01*
X050210Y016428D01*
X050250Y016420D01*
X050290Y016415D01*
X050331Y016413D01*
X049941Y017225D02*
X049967Y017256D01*
X049996Y017285D01*
X050028Y017311D01*
X050061Y017334D01*
X050096Y017354D01*
X050133Y017372D01*
X050171Y017387D01*
X050210Y017398D01*
X050250Y017406D01*
X050290Y017411D01*
X050331Y017413D01*
X050531Y016913D02*
X050529Y016887D01*
X050524Y016861D01*
X050516Y016836D01*
X050504Y016813D01*
X050490Y016791D01*
X050472Y016772D01*
X050453Y016754D01*
X050431Y016740D01*
X050408Y016728D01*
X050383Y016720D01*
X050357Y016715D01*
X050331Y016713D01*
X050721Y017225D02*
X050695Y017256D01*
X050666Y017285D01*
X050634Y017311D01*
X050601Y017334D01*
X050566Y017354D01*
X050529Y017372D01*
X050491Y017387D01*
X050452Y017398D01*
X050412Y017406D01*
X050372Y017411D01*
X050331Y017413D01*
X050931Y014363D02*
X051731Y014363D01*
X051748Y014361D01*
X051765Y014357D01*
X051781Y014350D01*
X051795Y014340D01*
X051808Y014327D01*
X051818Y014313D01*
X051825Y014297D01*
X051829Y014280D01*
X051831Y014263D01*
X051831Y011563D01*
X051829Y011546D01*
X051825Y011529D01*
X051818Y011513D01*
X051808Y011499D01*
X051795Y011486D01*
X051781Y011476D01*
X051765Y011469D01*
X051748Y011465D01*
X051731Y011463D01*
X050931Y011463D01*
X050914Y011465D01*
X050897Y011469D01*
X050881Y011476D01*
X050867Y011486D01*
X050854Y011499D01*
X050844Y011513D01*
X050837Y011529D01*
X050833Y011546D01*
X050831Y011563D01*
X050831Y014263D01*
X050833Y014280D01*
X050837Y014297D01*
X050844Y014313D01*
X050854Y014327D01*
X050867Y014340D01*
X050881Y014350D01*
X050897Y014357D01*
X050914Y014361D01*
X050931Y014363D01*
X049781Y014063D02*
X049781Y013913D01*
X049731Y013863D01*
X049731Y011963D01*
X049781Y011913D01*
X049781Y011763D01*
X049779Y011746D01*
X049775Y011729D01*
X049768Y011713D01*
X049758Y011699D01*
X049745Y011686D01*
X049731Y011676D01*
X049715Y011669D01*
X049698Y011665D01*
X049681Y011663D01*
X048981Y011663D01*
X048964Y011665D01*
X048947Y011669D01*
X048931Y011676D01*
X048917Y011686D01*
X048904Y011699D01*
X048894Y011713D01*
X048887Y011729D01*
X048883Y011746D01*
X048881Y011763D01*
X048881Y011913D01*
X048931Y011963D01*
X048931Y013863D01*
X048881Y013913D01*
X048881Y014063D01*
X048883Y014080D01*
X048887Y014097D01*
X048894Y014113D01*
X048904Y014127D01*
X048917Y014140D01*
X048931Y014150D01*
X048947Y014157D01*
X048964Y014161D01*
X048981Y014163D01*
X049681Y014163D01*
X049698Y014161D01*
X049715Y014157D01*
X049731Y014150D01*
X049745Y014140D01*
X049758Y014127D01*
X049768Y014113D01*
X049775Y014097D01*
X049779Y014080D01*
X049781Y014063D01*
X051331Y013513D02*
X051331Y013043D01*
X051331Y012793D02*
X051331Y012313D01*
X053331Y012313D02*
X053331Y012793D01*
X053331Y013043D02*
X053331Y013513D01*
X053831Y014263D02*
X053829Y014280D01*
X053825Y014297D01*
X053818Y014313D01*
X053808Y014327D01*
X053795Y014340D01*
X053781Y014350D01*
X053765Y014357D01*
X053748Y014361D01*
X053731Y014363D01*
X052931Y014363D01*
X052914Y014361D01*
X052897Y014357D01*
X052881Y014350D01*
X052867Y014340D01*
X052854Y014327D01*
X052844Y014313D01*
X052837Y014297D01*
X052833Y014280D01*
X052831Y014263D01*
X052831Y011563D01*
X052833Y011546D01*
X052837Y011529D01*
X052844Y011513D01*
X052854Y011499D01*
X052867Y011486D01*
X052881Y011476D01*
X052897Y011469D01*
X052914Y011465D01*
X052931Y011463D01*
X053731Y011463D01*
X053748Y011465D01*
X053765Y011469D01*
X053781Y011476D01*
X053795Y011486D01*
X053808Y011499D01*
X053818Y011513D01*
X053825Y011529D01*
X053829Y011546D01*
X053831Y011563D01*
X053831Y014263D01*
X057331Y013963D02*
X062231Y013963D01*
X062231Y013613D01*
X062831Y013613D01*
X062831Y013963D01*
X063581Y013963D01*
X063581Y009863D01*
X062831Y009863D01*
X062831Y010213D01*
X062231Y010213D01*
X062231Y009863D01*
X057331Y009863D01*
X057331Y013963D01*
X061521Y011913D02*
X061523Y011966D01*
X061529Y012019D01*
X061539Y012071D01*
X061553Y012122D01*
X061570Y012172D01*
X061591Y012221D01*
X061616Y012268D01*
X061644Y012313D01*
X061676Y012356D01*
X061711Y012396D01*
X061748Y012433D01*
X061788Y012468D01*
X061831Y012500D01*
X061876Y012528D01*
X061923Y012553D01*
X061972Y012574D01*
X062022Y012591D01*
X062073Y012605D01*
X062125Y012615D01*
X062178Y012621D01*
X062231Y012623D01*
X062284Y012621D01*
X062337Y012615D01*
X062389Y012605D01*
X062440Y012591D01*
X062490Y012574D01*
X062539Y012553D01*
X062586Y012528D01*
X062631Y012500D01*
X062674Y012468D01*
X062714Y012433D01*
X062751Y012396D01*
X062786Y012356D01*
X062818Y012313D01*
X062846Y012268D01*
X062871Y012221D01*
X062892Y012172D01*
X062909Y012122D01*
X062923Y012071D01*
X062933Y012019D01*
X062939Y011966D01*
X062941Y011913D01*
X062939Y011860D01*
X062933Y011807D01*
X062923Y011755D01*
X062909Y011704D01*
X062892Y011654D01*
X062871Y011605D01*
X062846Y011558D01*
X062818Y011513D01*
X062786Y011470D01*
X062751Y011430D01*
X062714Y011393D01*
X062674Y011358D01*
X062631Y011326D01*
X062586Y011298D01*
X062539Y011273D01*
X062490Y011252D01*
X062440Y011235D01*
X062389Y011221D01*
X062337Y011211D01*
X062284Y011205D01*
X062231Y011203D01*
X062178Y011205D01*
X062125Y011211D01*
X062073Y011221D01*
X062022Y011235D01*
X061972Y011252D01*
X061923Y011273D01*
X061876Y011298D01*
X061831Y011326D01*
X061788Y011358D01*
X061748Y011393D01*
X061711Y011430D01*
X061676Y011470D01*
X061644Y011513D01*
X061616Y011558D01*
X061591Y011605D01*
X061570Y011654D01*
X061553Y011704D01*
X061539Y011755D01*
X061529Y011807D01*
X061523Y011860D01*
X061521Y011913D01*
X062231Y008963D02*
X057331Y008963D01*
X057331Y004863D01*
X062231Y004863D01*
X062231Y005213D01*
X062831Y005213D01*
X062831Y004863D01*
X063581Y004863D01*
X063581Y008963D01*
X062831Y008963D01*
X062831Y008613D01*
X062231Y008613D01*
X062231Y008963D01*
X061521Y006913D02*
X061523Y006966D01*
X061529Y007019D01*
X061539Y007071D01*
X061553Y007122D01*
X061570Y007172D01*
X061591Y007221D01*
X061616Y007268D01*
X061644Y007313D01*
X061676Y007356D01*
X061711Y007396D01*
X061748Y007433D01*
X061788Y007468D01*
X061831Y007500D01*
X061876Y007528D01*
X061923Y007553D01*
X061972Y007574D01*
X062022Y007591D01*
X062073Y007605D01*
X062125Y007615D01*
X062178Y007621D01*
X062231Y007623D01*
X062284Y007621D01*
X062337Y007615D01*
X062389Y007605D01*
X062440Y007591D01*
X062490Y007574D01*
X062539Y007553D01*
X062586Y007528D01*
X062631Y007500D01*
X062674Y007468D01*
X062714Y007433D01*
X062751Y007396D01*
X062786Y007356D01*
X062818Y007313D01*
X062846Y007268D01*
X062871Y007221D01*
X062892Y007172D01*
X062909Y007122D01*
X062923Y007071D01*
X062933Y007019D01*
X062939Y006966D01*
X062941Y006913D01*
X062939Y006860D01*
X062933Y006807D01*
X062923Y006755D01*
X062909Y006704D01*
X062892Y006654D01*
X062871Y006605D01*
X062846Y006558D01*
X062818Y006513D01*
X062786Y006470D01*
X062751Y006430D01*
X062714Y006393D01*
X062674Y006358D01*
X062631Y006326D01*
X062586Y006298D01*
X062539Y006273D01*
X062490Y006252D01*
X062440Y006235D01*
X062389Y006221D01*
X062337Y006211D01*
X062284Y006205D01*
X062231Y006203D01*
X062178Y006205D01*
X062125Y006211D01*
X062073Y006221D01*
X062022Y006235D01*
X061972Y006252D01*
X061923Y006273D01*
X061876Y006298D01*
X061831Y006326D01*
X061788Y006358D01*
X061748Y006393D01*
X061711Y006430D01*
X061676Y006470D01*
X061644Y006513D01*
X061616Y006558D01*
X061591Y006605D01*
X061570Y006654D01*
X061553Y006704D01*
X061539Y006755D01*
X061529Y006807D01*
X061523Y006860D01*
X061521Y006913D01*
X053831Y005563D02*
X053831Y008263D01*
X053829Y008280D01*
X053825Y008297D01*
X053818Y008313D01*
X053808Y008327D01*
X053795Y008340D01*
X053781Y008350D01*
X053765Y008357D01*
X053748Y008361D01*
X053731Y008363D01*
X052931Y008363D01*
X052914Y008361D01*
X052897Y008357D01*
X052881Y008350D01*
X052867Y008340D01*
X052854Y008327D01*
X052844Y008313D01*
X052837Y008297D01*
X052833Y008280D01*
X052831Y008263D01*
X052831Y005563D01*
X052833Y005546D01*
X052837Y005529D01*
X052844Y005513D01*
X052854Y005499D01*
X052867Y005486D01*
X052881Y005476D01*
X052897Y005469D01*
X052914Y005465D01*
X052931Y005463D01*
X053731Y005463D01*
X053748Y005465D01*
X053765Y005469D01*
X053781Y005476D01*
X053795Y005486D01*
X053808Y005499D01*
X053818Y005513D01*
X053825Y005529D01*
X053829Y005546D01*
X053831Y005563D01*
X051831Y005563D02*
X051831Y008263D01*
X051829Y008280D01*
X051825Y008297D01*
X051818Y008313D01*
X051808Y008327D01*
X051795Y008340D01*
X051781Y008350D01*
X051765Y008357D01*
X051748Y008361D01*
X051731Y008363D01*
X050931Y008363D01*
X050914Y008361D01*
X050897Y008357D01*
X050881Y008350D01*
X050867Y008340D01*
X050854Y008327D01*
X050844Y008313D01*
X050837Y008297D01*
X050833Y008280D01*
X050831Y008263D01*
X050831Y005563D01*
X050833Y005546D01*
X050837Y005529D01*
X050844Y005513D01*
X050854Y005499D01*
X050867Y005486D01*
X050881Y005476D01*
X050897Y005469D01*
X050914Y005465D01*
X050931Y005463D01*
X051731Y005463D01*
X051748Y005465D01*
X051765Y005469D01*
X051781Y005476D01*
X051795Y005486D01*
X051808Y005499D01*
X051818Y005513D01*
X051825Y005529D01*
X051829Y005546D01*
X051831Y005563D01*
X051331Y006313D02*
X051331Y006793D01*
X051331Y007043D02*
X051331Y007513D01*
X049781Y006913D02*
X049731Y006963D01*
X049731Y008863D01*
X049781Y008913D01*
X049781Y009063D01*
X049779Y009080D01*
X049775Y009097D01*
X049768Y009113D01*
X049758Y009127D01*
X049745Y009140D01*
X049731Y009150D01*
X049715Y009157D01*
X049698Y009161D01*
X049681Y009163D01*
X048981Y009163D01*
X048964Y009161D01*
X048947Y009157D01*
X048931Y009150D01*
X048917Y009140D01*
X048904Y009127D01*
X048894Y009113D01*
X048887Y009097D01*
X048883Y009080D01*
X048881Y009063D01*
X048881Y008913D01*
X048931Y008863D01*
X048931Y006963D01*
X048881Y006913D01*
X048881Y006763D01*
X048883Y006746D01*
X048887Y006729D01*
X048894Y006713D01*
X048904Y006699D01*
X048917Y006686D01*
X048931Y006676D01*
X048947Y006669D01*
X048964Y006665D01*
X048981Y006663D01*
X049681Y006663D01*
X049698Y006665D01*
X049715Y006669D01*
X049731Y006676D01*
X049745Y006686D01*
X049758Y006699D01*
X049768Y006713D01*
X049775Y006729D01*
X049779Y006746D01*
X049781Y006763D01*
X049781Y006913D01*
X053331Y006793D02*
X053331Y006313D01*
X053331Y007043D02*
X053331Y007513D01*
X039031Y012363D02*
X039031Y012563D01*
X039031Y012663D01*
X032631Y012663D02*
X032631Y012563D01*
X032631Y012363D01*
X032031Y012363D02*
X032031Y012563D01*
X032031Y012663D01*
X016531Y007555D02*
X016531Y006271D01*
X016531Y007555D02*
X016488Y007599D01*
X016443Y007639D01*
X016395Y007677D01*
X016345Y007712D01*
X016293Y007743D01*
X016239Y007771D01*
X016183Y007795D01*
X016126Y007816D01*
X016068Y007833D01*
X016008Y007846D01*
X015948Y007856D01*
X015888Y007861D01*
X015827Y007863D01*
X015766Y007861D01*
X015705Y007855D01*
X015645Y007845D01*
X015586Y007831D01*
X015528Y007813D01*
X015471Y007792D01*
X015415Y007767D01*
X015362Y007739D01*
X015310Y007707D01*
X015260Y007672D01*
X015212Y007634D01*
X015168Y007593D01*
X015125Y007549D01*
X015086Y007503D01*
X015050Y007454D01*
X015017Y007403D01*
X014987Y007349D01*
X014961Y007295D01*
X014961Y006531D02*
X014987Y006477D01*
X015017Y006423D01*
X015050Y006372D01*
X015086Y006323D01*
X015125Y006277D01*
X015168Y006233D01*
X015212Y006192D01*
X015260Y006154D01*
X015310Y006119D01*
X015362Y006087D01*
X015415Y006059D01*
X015471Y006034D01*
X015528Y006013D01*
X015586Y005995D01*
X015645Y005981D01*
X015705Y005971D01*
X015766Y005965D01*
X015827Y005963D01*
X015888Y005965D01*
X015948Y005970D01*
X016008Y005980D01*
X016068Y005993D01*
X016126Y006010D01*
X016183Y006031D01*
X016239Y006055D01*
X016293Y006083D01*
X016345Y006114D01*
X016395Y006149D01*
X016443Y006187D01*
X016488Y006227D01*
X016531Y006271D01*
X013581Y006563D02*
X013581Y007263D01*
X013579Y007280D01*
X013575Y007297D01*
X013568Y007313D01*
X013558Y007327D01*
X013545Y007340D01*
X013531Y007350D01*
X013515Y007357D01*
X013498Y007361D01*
X013481Y007363D01*
X013331Y007363D01*
X013281Y007313D01*
X011381Y007313D01*
X011331Y007363D01*
X011181Y007363D01*
X011164Y007361D01*
X011147Y007357D01*
X011131Y007350D01*
X011117Y007340D01*
X011104Y007327D01*
X011094Y007313D01*
X011087Y007297D01*
X011083Y007280D01*
X011081Y007263D01*
X011081Y006563D01*
X011083Y006546D01*
X011087Y006529D01*
X011094Y006513D01*
X011104Y006499D01*
X011117Y006486D01*
X011131Y006476D01*
X011147Y006469D01*
X011164Y006465D01*
X011181Y006463D01*
X011331Y006463D01*
X011381Y006513D01*
X013281Y006513D01*
X013331Y006463D01*
X013481Y006463D01*
X013498Y006465D01*
X013515Y006469D01*
X013531Y006476D01*
X013545Y006486D01*
X013558Y006499D01*
X013568Y006513D01*
X013575Y006529D01*
X013579Y006546D01*
X013581Y006563D01*
X049881Y024513D02*
X049881Y025313D01*
X049883Y025330D01*
X049887Y025347D01*
X049894Y025363D01*
X049904Y025377D01*
X049917Y025390D01*
X049931Y025400D01*
X049947Y025407D01*
X049964Y025411D01*
X049981Y025413D01*
X052681Y025413D01*
X052698Y025411D01*
X052715Y025407D01*
X052731Y025400D01*
X052745Y025390D01*
X052758Y025377D01*
X052768Y025363D01*
X052775Y025347D01*
X052779Y025330D01*
X052781Y025313D01*
X052781Y024513D01*
X052779Y024496D01*
X052775Y024479D01*
X052768Y024463D01*
X052758Y024449D01*
X052745Y024436D01*
X052731Y024426D01*
X052715Y024419D01*
X052698Y024415D01*
X052681Y024413D01*
X049981Y024413D01*
X049964Y024415D01*
X049947Y024419D01*
X049931Y024426D01*
X049917Y024436D01*
X049904Y024449D01*
X049894Y024463D01*
X049887Y024479D01*
X049883Y024496D01*
X049881Y024513D01*
X050731Y024913D02*
X051211Y024913D01*
X051461Y024913D02*
X051931Y024913D01*
X013781Y027513D02*
X013781Y028313D01*
X013779Y028330D01*
X013775Y028347D01*
X013768Y028363D01*
X013758Y028377D01*
X013745Y028390D01*
X013731Y028400D01*
X013715Y028407D01*
X013698Y028411D01*
X013681Y028413D01*
X010981Y028413D01*
X010964Y028411D01*
X010947Y028407D01*
X010931Y028400D01*
X010917Y028390D01*
X010904Y028377D01*
X010894Y028363D01*
X010887Y028347D01*
X010883Y028330D01*
X010881Y028313D01*
X010881Y027513D01*
X010883Y027496D01*
X010887Y027479D01*
X010894Y027463D01*
X010904Y027449D01*
X010917Y027436D01*
X010931Y027426D01*
X010947Y027419D01*
X010964Y027415D01*
X010981Y027413D01*
X013681Y027413D01*
X013698Y027415D01*
X013715Y027419D01*
X013731Y027426D01*
X013745Y027436D01*
X013758Y027449D01*
X013768Y027463D01*
X013775Y027479D01*
X013779Y027496D01*
X013781Y027513D01*
X012931Y027913D02*
X012461Y027913D01*
X012211Y027913D02*
X011731Y027913D01*
D14*
X051106Y019913D03*
X051106Y016913D03*
X009106Y012913D03*
X009106Y010913D03*
X009106Y008913D03*
D15*
X051081Y007043D02*
X051331Y007043D01*
X051581Y007043D01*
X051581Y006793D02*
X051331Y006793D01*
X051081Y006793D01*
X053081Y006793D02*
X053331Y006793D01*
X053581Y006793D01*
X053581Y007043D02*
X053331Y007043D01*
X053081Y007043D01*
X053081Y012793D02*
X053331Y012793D01*
X053581Y012793D01*
X053581Y013043D02*
X053331Y013043D01*
X053081Y013043D01*
X051581Y013043D02*
X051331Y013043D01*
X051081Y013043D01*
X051081Y012793D02*
X051331Y012793D01*
X051581Y012793D01*
X051461Y024663D02*
X051461Y024913D01*
X051461Y025163D01*
X051211Y025163D02*
X051211Y024913D01*
X051211Y024663D01*
X012461Y027663D02*
X012461Y027913D01*
X012461Y028163D01*
X012211Y028163D02*
X012211Y027913D01*
X012211Y027663D01*
D16*
X012166Y028538D02*
X012166Y028988D01*
X012016Y028838D01*
X011856Y028913D02*
X011781Y028988D01*
X011631Y028988D01*
X011556Y028913D01*
X011556Y028613D01*
X011631Y028538D01*
X011781Y028538D01*
X011856Y028613D01*
X012016Y028538D02*
X012317Y028538D01*
X029856Y020563D02*
X029931Y020638D01*
X030081Y020638D01*
X030156Y020563D01*
X030156Y020488D01*
X029856Y020188D01*
X030156Y020188D01*
X030006Y019638D02*
X030006Y019188D01*
X029856Y019188D02*
X030156Y019188D01*
X029856Y019488D02*
X030006Y019638D01*
X034956Y018713D02*
X035031Y018788D01*
X035181Y018788D01*
X035256Y018713D01*
X035256Y018638D01*
X034956Y018338D01*
X035256Y018338D01*
X035416Y018413D02*
X035717Y018713D01*
X035717Y018413D01*
X035642Y018338D01*
X035491Y018338D01*
X035416Y018413D01*
X035416Y018713D01*
X035491Y018788D01*
X035642Y018788D01*
X035717Y018713D01*
X030156Y014563D02*
X030081Y014638D01*
X029931Y014638D01*
X029856Y014563D01*
X030156Y014563D02*
X030156Y014488D01*
X029856Y014188D01*
X030156Y014188D01*
X030006Y013638D02*
X030006Y013188D01*
X029856Y013188D02*
X030156Y013188D01*
X029856Y013488D02*
X030006Y013638D01*
X034956Y012713D02*
X035031Y012788D01*
X035181Y012788D01*
X035256Y012713D01*
X035256Y012638D01*
X034956Y012338D01*
X035256Y012338D01*
X035416Y012413D02*
X035717Y012713D01*
X035717Y012413D01*
X035642Y012338D01*
X035491Y012338D01*
X035416Y012413D01*
X035416Y012713D01*
X035491Y012788D01*
X035642Y012788D01*
X035717Y012713D01*
X048256Y012499D02*
X048256Y012198D01*
X048331Y012038D02*
X048481Y012038D01*
X048556Y011963D01*
X048556Y011738D01*
X048706Y011738D02*
X048256Y011738D01*
X048256Y011963D01*
X048331Y012038D01*
X048556Y011888D02*
X048706Y012038D01*
X048706Y012198D02*
X048631Y012198D01*
X048331Y012499D01*
X048256Y012499D01*
X050256Y012598D02*
X050256Y012899D01*
X050406Y012824D02*
X050481Y012899D01*
X050631Y012899D01*
X050706Y012824D01*
X050706Y012673D01*
X050631Y012598D01*
X050481Y012598D02*
X050406Y012749D01*
X050406Y012824D01*
X050481Y012598D02*
X050256Y012598D01*
X050331Y012438D02*
X050256Y012363D01*
X050256Y012213D01*
X050331Y012138D01*
X050631Y012138D01*
X050706Y012213D01*
X050706Y012363D01*
X050631Y012438D01*
X052256Y012363D02*
X052256Y012213D01*
X052331Y012138D01*
X052631Y012138D01*
X052706Y012213D01*
X052706Y012363D01*
X052631Y012438D01*
X052631Y012598D02*
X052706Y012673D01*
X052706Y012824D01*
X052631Y012899D01*
X052556Y012899D01*
X052481Y012824D01*
X052481Y012749D01*
X052481Y012824D02*
X052406Y012899D01*
X052331Y012899D01*
X052256Y012824D01*
X052256Y012673D01*
X052331Y012598D01*
X052331Y012438D02*
X052256Y012363D01*
X048631Y007499D02*
X048556Y007499D01*
X048481Y007424D01*
X048481Y007198D01*
X048631Y007198D01*
X048706Y007273D01*
X048706Y007424D01*
X048631Y007499D01*
X048331Y007349D02*
X048481Y007198D01*
X048481Y007038D02*
X048556Y006963D01*
X048556Y006738D01*
X048706Y006738D02*
X048256Y006738D01*
X048256Y006963D01*
X048331Y007038D01*
X048481Y007038D01*
X048556Y006888D02*
X048706Y007038D01*
X048331Y007349D02*
X048256Y007499D01*
X050256Y006899D02*
X050331Y006749D01*
X050481Y006598D01*
X050481Y006824D01*
X050556Y006899D01*
X050631Y006899D01*
X050706Y006824D01*
X050706Y006673D01*
X050631Y006598D01*
X050481Y006598D01*
X050631Y006438D02*
X050706Y006363D01*
X050706Y006213D01*
X050631Y006138D01*
X050331Y006138D01*
X050256Y006213D01*
X050256Y006363D01*
X050331Y006438D01*
X052256Y006363D02*
X052256Y006213D01*
X052331Y006138D01*
X052631Y006138D01*
X052706Y006213D01*
X052706Y006363D01*
X052631Y006438D01*
X052481Y006598D02*
X052481Y006899D01*
X052706Y006824D02*
X052256Y006824D01*
X052481Y006598D01*
X052331Y006438D02*
X052256Y006363D01*
X015806Y008263D02*
X015731Y008188D01*
X015431Y008188D01*
X015356Y008263D01*
X015356Y008413D01*
X015431Y008488D01*
X015731Y008488D01*
X015806Y008413D01*
X015806Y008263D01*
X015656Y008338D02*
X015806Y008488D01*
X015806Y008648D02*
X015806Y008949D01*
X015806Y008799D02*
X015356Y008799D01*
X015506Y008648D01*
X011917Y007988D02*
X011616Y007988D01*
X011616Y007763D01*
X011766Y007838D01*
X011842Y007838D01*
X011917Y007763D01*
X011917Y007613D01*
X011842Y007538D01*
X011691Y007538D01*
X011616Y007613D01*
X011456Y007538D02*
X011306Y007688D01*
X011381Y007688D02*
X011156Y007688D01*
X011156Y007538D02*
X011156Y007988D01*
X011381Y007988D01*
X011456Y007913D01*
X011456Y007763D01*
X011381Y007688D01*
X011456Y009538D02*
X011306Y009688D01*
X011381Y009688D02*
X011156Y009688D01*
X011156Y009538D02*
X011156Y009988D01*
X011381Y009988D01*
X011456Y009913D01*
X011456Y009763D01*
X011381Y009688D01*
X011616Y009763D02*
X011917Y009763D01*
X011842Y009538D02*
X011842Y009988D01*
X011616Y009763D01*
X011691Y011538D02*
X011616Y011613D01*
X011691Y011538D02*
X011842Y011538D01*
X011917Y011613D01*
X011917Y011688D01*
X011842Y011763D01*
X011766Y011763D01*
X011842Y011763D02*
X011917Y011838D01*
X011917Y011913D01*
X011842Y011988D01*
X011691Y011988D01*
X011616Y011913D01*
X011456Y011913D02*
X011456Y011763D01*
X011381Y011688D01*
X011156Y011688D01*
X011156Y011538D02*
X011156Y011988D01*
X011381Y011988D01*
X011456Y011913D01*
X011306Y011688D02*
X011456Y011538D01*
X011456Y013538D02*
X011306Y013688D01*
X011381Y013688D02*
X011156Y013688D01*
X011156Y013538D02*
X011156Y013988D01*
X011381Y013988D01*
X011456Y013913D01*
X011456Y013763D01*
X011381Y013688D01*
X011616Y013538D02*
X011917Y013838D01*
X011917Y013913D01*
X011842Y013988D01*
X011691Y013988D01*
X011616Y013913D01*
X011616Y013538D02*
X011917Y013538D01*
X011917Y015538D02*
X011616Y015538D01*
X011766Y015538D02*
X011766Y015988D01*
X011616Y015838D01*
X011456Y015913D02*
X011456Y015763D01*
X011381Y015688D01*
X011156Y015688D01*
X011156Y015538D02*
X011156Y015988D01*
X011381Y015988D01*
X011456Y015913D01*
X011306Y015688D02*
X011456Y015538D01*
X015356Y015763D02*
X015356Y015913D01*
X015431Y015988D01*
X015731Y015988D01*
X015806Y015913D01*
X015806Y015763D01*
X015731Y015688D01*
X015431Y015688D01*
X015356Y015763D01*
X015656Y015838D02*
X015806Y015988D01*
X015806Y016148D02*
X015506Y016449D01*
X015431Y016449D01*
X015356Y016374D01*
X015356Y016223D01*
X015431Y016148D01*
X015806Y016148D02*
X015806Y016449D01*
X050556Y025613D02*
X050631Y025538D01*
X050781Y025538D01*
X050856Y025613D01*
X051016Y025538D02*
X051317Y025838D01*
X051317Y025913D01*
X051242Y025988D01*
X051091Y025988D01*
X051016Y025913D01*
X050856Y025913D02*
X050781Y025988D01*
X050631Y025988D01*
X050556Y025913D01*
X050556Y025613D01*
X051016Y025538D02*
X051317Y025538D01*
X051331Y028388D02*
X051181Y028388D01*
X051106Y028463D01*
X051181Y028613D02*
X051331Y028613D01*
X051406Y028538D01*
X051406Y028463D01*
X051331Y028388D01*
X051566Y028388D02*
X051867Y028388D01*
X051716Y028388D02*
X051716Y028838D01*
X051566Y028688D01*
X051406Y028763D02*
X051331Y028838D01*
X051181Y028838D01*
X051106Y028763D01*
X051106Y028688D01*
X051181Y028613D01*
D17*
X013751Y014913D03*
X010911Y014913D03*
X010911Y012913D03*
X013751Y012913D03*
X013751Y010913D03*
X010911Y010913D03*
X010911Y008913D03*
X013751Y008913D03*
X013751Y006913D03*
X010911Y006913D03*
D18*
X052796Y014720D02*
X052796Y015350D01*
X052796Y014720D02*
X058425Y014720D01*
X058425Y018106D01*
X055296Y018106D01*
X053425Y018106D02*
X052796Y018106D01*
X052796Y017476D01*
D19*
X041431Y018563D02*
X041431Y021263D01*
X029231Y021263D01*
X029231Y018563D01*
X032031Y018563D01*
X032631Y018563D02*
X034531Y018563D01*
X036131Y018563D02*
X039031Y018563D01*
X039631Y018563D02*
X041431Y018563D01*
X041431Y015263D02*
X029231Y015263D01*
X029231Y012563D01*
X032031Y012563D01*
X032631Y012563D02*
X034531Y012563D01*
X036131Y012563D02*
X039031Y012563D01*
X039631Y012563D02*
X041431Y012563D01*
X041431Y015263D01*
X057581Y013713D02*
X060831Y013713D01*
X060831Y010113D01*
X057581Y010113D01*
X057581Y013713D01*
X057581Y008713D02*
X060831Y008713D01*
X060831Y005113D01*
X057581Y005113D01*
X057581Y008713D01*
D20*
X057561Y009098D02*
X057140Y009098D01*
X057561Y009518D01*
X057561Y009623D01*
X057455Y009729D01*
X057245Y009729D01*
X057140Y009623D01*
X056916Y009623D02*
X056811Y009729D01*
X056601Y009729D01*
X056496Y009623D01*
X056496Y009203D01*
X056601Y009098D01*
X056811Y009098D01*
X056916Y009203D01*
X056276Y009098D02*
X056066Y009098D01*
X056171Y009098D02*
X056171Y009729D01*
X056066Y009729D02*
X056276Y009729D01*
X056276Y014098D02*
X056066Y014098D01*
X056171Y014098D02*
X056171Y014729D01*
X056066Y014729D02*
X056276Y014729D01*
X056496Y014623D02*
X056496Y014203D01*
X056601Y014098D01*
X056811Y014098D01*
X056916Y014203D01*
X057140Y014098D02*
X057561Y014098D01*
X057350Y014098D02*
X057350Y014729D01*
X057140Y014518D01*
X056916Y014623D02*
X056811Y014729D01*
X056601Y014729D01*
X056496Y014623D01*
X030575Y015948D02*
X030155Y015948D01*
X030575Y016368D01*
X030575Y016473D01*
X030470Y016579D01*
X030260Y016579D01*
X030155Y016473D01*
X029931Y016579D02*
X029931Y016158D01*
X029721Y015948D01*
X029511Y016158D01*
X029511Y016579D01*
X029286Y016473D02*
X029181Y016579D01*
X028971Y016579D01*
X028866Y016473D01*
X028866Y016368D01*
X028971Y016263D01*
X029181Y016263D01*
X029286Y016158D01*
X029286Y016053D01*
X029181Y015948D01*
X028971Y015948D01*
X028866Y016053D01*
X028971Y021948D02*
X028866Y022053D01*
X028971Y021948D02*
X029181Y021948D01*
X029286Y022053D01*
X029286Y022158D01*
X029181Y022263D01*
X028971Y022263D01*
X028866Y022368D01*
X028866Y022473D01*
X028971Y022579D01*
X029181Y022579D01*
X029286Y022473D01*
X029511Y022579D02*
X029511Y022158D01*
X029721Y021948D01*
X029931Y022158D01*
X029931Y022579D01*
X030155Y022368D02*
X030365Y022579D01*
X030365Y021948D01*
X030155Y021948D02*
X030575Y021948D01*
D21*
X056106Y012913D03*
X056106Y011913D03*
X056106Y010913D03*
X056106Y007913D03*
X056106Y006913D03*
X056106Y005913D03*
D22*
X056781Y005913D03*
X056781Y006913D03*
X056781Y007913D03*
X056781Y010913D03*
X056781Y011913D03*
X056781Y012913D03*
D23*
X052961Y027913D02*
X052701Y027913D01*
X051511Y027913D02*
X051151Y027913D01*
D24*
X049331Y014333D03*
X049331Y011493D03*
X049331Y009333D03*
X049331Y006493D03*
M02*
