G75*
G70*
%OFA0B0*%
%FSLAX24Y24*%
%IPPOS*%
%LPD*%
%AMOC8*
5,1,8,0,0,1.08239X$1,22.5*
%
%ADD10C,0.0600*%
%ADD11C,0.0520*%
%ADD12OC8,0.0520*%
%ADD13R,0.0827X0.0827*%
%ADD14OC8,0.0750*%
%ADD15OC8,0.0560*%
%ADD16C,0.0100*%
%ADD17C,0.0400*%
%ADD18C,0.0400*%
%ADD19C,0.0900*%
D10*
X003702Y005200D02*
X003702Y005800D01*
X004702Y005800D02*
X004702Y005200D01*
X005702Y005200D02*
X005702Y005800D01*
X007702Y005800D02*
X007702Y005200D01*
X008702Y005200D02*
X008702Y005800D01*
X009702Y005800D02*
X009702Y005200D01*
X011702Y005200D02*
X011702Y005800D01*
X012702Y005800D02*
X012702Y005200D01*
X013702Y005200D02*
X013702Y005800D01*
X023702Y005800D02*
X023702Y005200D01*
X024702Y005200D02*
X024702Y005800D01*
X025702Y005800D02*
X025702Y005200D01*
X027702Y005200D02*
X027702Y005800D01*
X028702Y005800D02*
X028702Y005200D01*
X029702Y005200D02*
X029702Y005800D01*
X031702Y005800D02*
X031702Y005200D01*
X032702Y005200D02*
X032702Y005800D01*
X033702Y005800D02*
X033702Y005200D01*
X042702Y005200D02*
X042702Y005800D01*
X043702Y005800D02*
X043702Y005200D01*
X044702Y005200D02*
X044702Y005800D01*
X046702Y005800D02*
X046702Y005200D01*
X047702Y005200D02*
X047702Y005800D01*
X048702Y005800D02*
X048702Y005200D01*
X050702Y005200D02*
X050702Y005800D01*
X051702Y005800D02*
X051702Y005200D01*
X052702Y005200D02*
X052702Y005800D01*
X052702Y031200D02*
X052702Y031800D01*
X051702Y031800D02*
X051702Y031200D01*
X050702Y031200D02*
X050702Y031800D01*
X048702Y031800D02*
X048702Y031200D01*
X047702Y031200D02*
X047702Y031800D01*
X046702Y031800D02*
X046702Y031200D01*
X044702Y031200D02*
X044702Y031800D01*
X043702Y031800D02*
X043702Y031200D01*
X042702Y031200D02*
X042702Y031800D01*
X033702Y031800D02*
X033702Y031200D01*
X032702Y031200D02*
X032702Y031800D01*
X031702Y031800D02*
X031702Y031200D01*
X029702Y031200D02*
X029702Y031800D01*
X028702Y031800D02*
X028702Y031200D01*
X027702Y031200D02*
X027702Y031800D01*
X025702Y031800D02*
X025702Y031200D01*
X024702Y031200D02*
X024702Y031800D01*
X023702Y031800D02*
X023702Y031200D01*
X013702Y031200D02*
X013702Y031800D01*
X012702Y031800D02*
X012702Y031200D01*
X011702Y031200D02*
X011702Y031800D01*
X009702Y031800D02*
X009702Y031200D01*
X008702Y031200D02*
X008702Y031800D01*
X007702Y031800D02*
X007702Y031200D01*
X005702Y031200D02*
X005702Y031800D01*
X004702Y031800D02*
X004702Y031200D01*
X003702Y031200D02*
X003702Y031800D01*
D11*
X003702Y026000D02*
X003182Y026000D01*
X003182Y025000D02*
X003702Y025000D01*
X006702Y025000D02*
X007222Y025000D01*
X008182Y025000D02*
X008702Y025000D01*
X008702Y026000D02*
X008182Y026000D01*
X007222Y026000D02*
X006702Y026000D01*
X011702Y026000D02*
X012222Y026000D01*
X013182Y026000D02*
X013702Y026000D01*
X013702Y025000D02*
X013182Y025000D01*
X012222Y025000D02*
X011702Y025000D01*
X016702Y025000D02*
X017222Y025000D01*
X018182Y025000D02*
X018702Y025000D01*
X018702Y026000D02*
X018182Y026000D01*
X017222Y026000D02*
X016702Y026000D01*
X021702Y026000D02*
X022222Y026000D01*
X023182Y026000D02*
X023702Y026000D01*
X023702Y025000D02*
X023182Y025000D01*
X022222Y025000D02*
X021702Y025000D01*
X026702Y025000D02*
X027222Y025000D01*
X028182Y025000D02*
X028702Y025000D01*
X028702Y026000D02*
X028182Y026000D01*
X027222Y026000D02*
X026702Y026000D01*
X031702Y026000D02*
X032222Y026000D01*
X033182Y026000D02*
X033702Y026000D01*
X033702Y025000D02*
X033182Y025000D01*
X032222Y025000D02*
X031702Y025000D01*
X036702Y025000D02*
X037222Y025000D01*
X038182Y025000D02*
X038702Y025000D01*
X038702Y026000D02*
X038182Y026000D01*
X037222Y026000D02*
X036702Y026000D01*
X041702Y026000D02*
X042222Y026000D01*
X043182Y026000D02*
X043702Y026000D01*
X043702Y025000D02*
X043182Y025000D01*
X042222Y025000D02*
X041702Y025000D01*
X046702Y025000D02*
X047222Y025000D01*
X047222Y026000D02*
X046702Y026000D01*
X046702Y012000D02*
X047222Y012000D01*
X047222Y011000D02*
X046702Y011000D01*
X043702Y011000D02*
X043182Y011000D01*
X042222Y011000D02*
X041702Y011000D01*
X041702Y012000D02*
X042222Y012000D01*
X043182Y012000D02*
X043702Y012000D01*
X038702Y012000D02*
X038182Y012000D01*
X037222Y012000D02*
X036702Y012000D01*
X036702Y011000D02*
X037222Y011000D01*
X038182Y011000D02*
X038702Y011000D01*
X033702Y011000D02*
X033182Y011000D01*
X032222Y011000D02*
X031702Y011000D01*
X031702Y012000D02*
X032222Y012000D01*
X033182Y012000D02*
X033702Y012000D01*
X028702Y012000D02*
X028182Y012000D01*
X027222Y012000D02*
X026702Y012000D01*
X026702Y011000D02*
X027222Y011000D01*
X028182Y011000D02*
X028702Y011000D01*
X023702Y011000D02*
X023182Y011000D01*
X022222Y011000D02*
X021702Y011000D01*
X021702Y012000D02*
X022222Y012000D01*
X023182Y012000D02*
X023702Y012000D01*
X018702Y012000D02*
X018182Y012000D01*
X017222Y012000D02*
X016702Y012000D01*
X016702Y011000D02*
X017222Y011000D01*
X018182Y011000D02*
X018702Y011000D01*
X013702Y011000D02*
X013182Y011000D01*
X012222Y011000D02*
X011702Y011000D01*
X011702Y012000D02*
X012222Y012000D01*
X013182Y012000D02*
X013702Y012000D01*
X008702Y012000D02*
X008182Y012000D01*
X007222Y012000D02*
X006702Y012000D01*
X006702Y011000D02*
X007222Y011000D01*
X008182Y011000D02*
X008702Y011000D01*
X003702Y011000D02*
X003182Y011000D01*
X003182Y012000D02*
X003702Y012000D01*
D12*
X004202Y014500D03*
X006202Y014500D03*
X008202Y014500D03*
X010202Y014500D03*
X012202Y014500D03*
X014202Y014500D03*
X016202Y014500D03*
X018202Y014500D03*
X020202Y014500D03*
X022202Y014500D03*
X022202Y018500D03*
X022202Y019500D03*
X020202Y019500D03*
X020202Y018500D03*
X018202Y018500D03*
X018202Y019500D03*
X016202Y019500D03*
X016202Y018500D03*
X014202Y018500D03*
X014202Y019500D03*
X012202Y019500D03*
X012202Y018500D03*
X010202Y018500D03*
X010202Y019500D03*
X008202Y019500D03*
X008202Y018500D03*
X006202Y018500D03*
X006202Y019500D03*
X004202Y019500D03*
X004202Y018500D03*
X004202Y023500D03*
X006202Y023500D03*
X008202Y023500D03*
X010202Y023500D03*
X012202Y023500D03*
X014202Y023500D03*
X016202Y023500D03*
X018202Y023500D03*
X020202Y023500D03*
X022202Y023500D03*
X038202Y023500D03*
X040202Y023500D03*
X042202Y023500D03*
X044202Y023500D03*
X046202Y023500D03*
X048202Y023500D03*
X050202Y023500D03*
X052202Y023500D03*
X052202Y019500D03*
X052202Y018500D03*
X050202Y018500D03*
X050202Y019500D03*
X048202Y019500D03*
X048202Y018500D03*
X046202Y018500D03*
X046202Y019500D03*
X044202Y019500D03*
X044202Y018500D03*
X042202Y018500D03*
X042202Y019500D03*
X040202Y019500D03*
X040202Y018500D03*
X038202Y018500D03*
X038202Y019500D03*
X038202Y014500D03*
X040202Y014500D03*
X042202Y014500D03*
X044202Y014500D03*
X046202Y014500D03*
X048202Y014500D03*
X050202Y014500D03*
X052202Y014500D03*
X055202Y029500D03*
X056702Y031000D03*
X057702Y031000D03*
X059202Y029500D03*
D13*
X058284Y022441D03*
X056119Y022441D03*
X056119Y020787D03*
X058284Y020787D03*
X058284Y019134D03*
X056119Y019134D03*
X056119Y017480D03*
X058284Y017480D03*
X058284Y015827D03*
X056119Y015827D03*
X056119Y014173D03*
X058284Y014173D03*
X058284Y012520D03*
X056119Y012520D03*
X056119Y010866D03*
X058284Y010866D03*
X058284Y009213D03*
X056119Y009213D03*
X056119Y007559D03*
X058284Y007559D03*
D14*
X058452Y027000D03*
X056952Y027000D03*
X055452Y027000D03*
D15*
X034702Y022000D03*
X033702Y022000D03*
X032702Y022000D03*
X031702Y022000D03*
X030702Y022000D03*
X029702Y022000D03*
X028702Y022000D03*
X027702Y022000D03*
X026702Y022000D03*
X025702Y022000D03*
X025702Y021000D03*
X026702Y021000D03*
X027702Y021000D03*
X028702Y021000D03*
X029702Y021000D03*
X030702Y021000D03*
X031702Y021000D03*
X032702Y021000D03*
X033702Y021000D03*
X034702Y021000D03*
X034702Y016000D03*
X033702Y016000D03*
X032702Y016000D03*
X031702Y016000D03*
X030702Y016000D03*
X029702Y016000D03*
X028702Y016000D03*
X027702Y016000D03*
X026702Y016000D03*
X025702Y016000D03*
X025702Y015000D03*
X026702Y015000D03*
X027702Y015000D03*
X028702Y015000D03*
X029702Y015000D03*
X030702Y015000D03*
X031702Y015000D03*
X032702Y015000D03*
X033702Y015000D03*
X034702Y015000D03*
D16*
X033702Y015000D02*
X033202Y015000D01*
X033202Y016500D01*
X006202Y016500D01*
X004202Y018500D01*
X006202Y019500D02*
X008702Y022000D01*
X025702Y022000D01*
X026202Y021500D02*
X026702Y022000D01*
X026202Y021500D02*
X012202Y021500D01*
X010202Y019500D01*
X016202Y018500D02*
X017202Y017500D01*
X029702Y017500D01*
X029202Y018000D02*
X020702Y018000D01*
X020202Y018500D01*
X022202Y019500D02*
X023202Y020500D01*
X029202Y020500D01*
X029202Y022000D01*
X029702Y022000D01*
X030702Y022000D02*
X031202Y022500D01*
X038202Y022500D01*
X038202Y022000D02*
X038702Y022500D01*
X054202Y022500D01*
X054202Y021500D01*
X052202Y019500D01*
X050202Y018500D02*
X049702Y018000D01*
X032702Y018000D01*
X035202Y017500D02*
X043702Y017500D01*
X040702Y017000D02*
X028702Y017000D01*
X031202Y014500D02*
X031702Y015000D01*
X032202Y015500D02*
X032702Y015000D01*
X032202Y015500D02*
X011202Y015500D01*
X015702Y015000D02*
X024702Y015000D01*
X025202Y014500D01*
X031202Y014500D01*
X029702Y014000D02*
X034702Y014000D01*
X036202Y015500D01*
X038202Y014500D02*
X037202Y013500D01*
X030202Y013500D01*
X029202Y011500D02*
X026202Y011500D01*
X025702Y011000D01*
X023702Y011000D01*
X023202Y010500D01*
X019202Y010500D01*
X018702Y011000D01*
X018202Y011500D01*
X014202Y011500D01*
X013702Y011000D01*
X013202Y010500D01*
X008202Y010500D01*
X008702Y011000D01*
X008202Y010500D02*
X004202Y010500D01*
X003702Y011000D01*
X021702Y012000D02*
X022202Y011500D01*
X025702Y011500D01*
X025702Y013500D02*
X023202Y013500D01*
X022202Y014500D01*
X028702Y011000D02*
X029202Y011500D01*
X033202Y011500D01*
X038202Y011500D01*
X043202Y011500D01*
X043702Y011000D01*
X042202Y012500D02*
X041702Y012000D01*
X042202Y012500D02*
X046202Y012500D01*
X046702Y012000D02*
X047202Y011500D01*
X050702Y011500D01*
X056702Y011500D01*
X056702Y015000D01*
X052702Y015000D01*
X052202Y014500D01*
X050202Y014500D02*
X049702Y014000D01*
X043702Y014000D01*
X045702Y015000D02*
X041702Y015000D01*
X045702Y015000D02*
X046202Y014500D01*
X050702Y011500D02*
X054702Y007500D01*
X054702Y005500D01*
X052702Y005500D01*
X040702Y012500D02*
X034202Y012500D01*
X033702Y012000D01*
X033202Y011500D02*
X033702Y011000D01*
X038202Y011500D02*
X038702Y011000D01*
X037202Y021500D02*
X033202Y021500D01*
X032702Y022000D01*
X032202Y023000D02*
X039702Y023000D01*
X040202Y023500D01*
X041702Y024000D02*
X042202Y023500D01*
X042202Y024000D02*
X043702Y024000D01*
X044202Y023500D01*
X043702Y025000D02*
X045702Y025000D01*
X046202Y025500D01*
X050202Y025500D01*
X051702Y024000D01*
X052702Y024000D01*
X052702Y023000D01*
X050702Y023000D01*
X050202Y023500D01*
X051202Y024000D02*
X051702Y023500D01*
X052202Y023500D01*
X051202Y024000D02*
X047702Y024000D01*
X046702Y025000D01*
X046702Y024500D02*
X047702Y023500D01*
X048202Y023500D01*
X046702Y024500D02*
X042202Y024500D01*
X041702Y025000D01*
X041702Y024500D02*
X042202Y024000D01*
X041702Y024000D02*
X034702Y024000D01*
X033702Y025000D01*
X031702Y026000D02*
X031202Y025500D01*
X036202Y025500D01*
X041202Y025500D01*
X044702Y025500D01*
X045202Y026000D01*
X046702Y026000D01*
X041702Y026000D02*
X041202Y025500D01*
X041702Y024500D02*
X037202Y024500D01*
X036702Y025000D01*
X036202Y025500D02*
X036702Y026000D01*
X038202Y023500D02*
X030202Y023500D01*
X028702Y025000D01*
X026702Y026000D02*
X026202Y025500D01*
X031202Y025500D01*
X026202Y025500D02*
X021202Y025500D01*
X016202Y025500D01*
X012202Y025500D01*
X011702Y026000D01*
X011202Y026500D01*
X007202Y026500D01*
X006702Y026000D01*
X014202Y023500D02*
X015702Y025000D01*
X016702Y025000D01*
X017202Y024500D02*
X018202Y024500D01*
X018702Y025000D01*
X019702Y025000D02*
X021702Y025000D01*
X021202Y024500D02*
X023202Y024500D01*
X023702Y025000D01*
X021702Y026000D02*
X021202Y025500D01*
X021202Y024500D02*
X020202Y023500D01*
X019702Y025000D02*
X018202Y023500D01*
X017202Y024500D02*
X016202Y023500D01*
X016202Y025500D02*
X016702Y026000D01*
X035702Y022000D02*
X038202Y022000D01*
D17*
X038202Y021500D03*
X038202Y022500D03*
X037202Y021500D03*
X035702Y022000D03*
X032202Y023000D03*
X027702Y019500D03*
X029202Y018000D03*
X029702Y017500D03*
X028702Y017000D03*
X032702Y018000D03*
X035202Y017500D03*
X036202Y015500D03*
X040702Y017000D03*
X041702Y015000D03*
X043702Y014000D03*
X046202Y012500D03*
X044202Y010500D03*
X046202Y010000D03*
X048202Y008000D03*
X053702Y007500D03*
X050202Y015500D03*
X054702Y016000D03*
X054702Y020000D03*
X053202Y021500D03*
X052202Y022000D03*
X058202Y024500D03*
X059202Y027500D03*
X051702Y026000D03*
X048702Y028000D03*
X050202Y029000D03*
X046202Y028500D03*
X045702Y031000D03*
X042202Y030000D03*
X034702Y027500D03*
X033702Y029000D03*
X027702Y029000D03*
X025702Y029000D03*
X018702Y027500D03*
X011202Y015500D03*
X015202Y013000D03*
X015702Y015000D03*
X012702Y010000D03*
X011702Y008000D03*
X006202Y008000D03*
X023702Y008000D03*
X026202Y008000D03*
X029202Y008000D03*
X025702Y011500D03*
X025702Y013500D03*
X029702Y014000D03*
X030202Y013500D03*
X039702Y009500D03*
X040702Y012500D03*
X040702Y013500D03*
X043702Y017500D03*
D18*
X044202Y018500D02*
X045202Y019500D01*
X046202Y019500D01*
X047202Y019500D01*
X048202Y018500D01*
X049202Y019500D01*
X050202Y019500D01*
X051202Y019500D01*
X052202Y018500D01*
X054702Y016000D01*
X056119Y015827D02*
X056202Y015500D01*
X050202Y015500D01*
X047202Y013000D02*
X047702Y012500D01*
X056202Y012500D01*
X056119Y012520D01*
X055702Y013500D02*
X040702Y013500D01*
X041702Y011000D02*
X040702Y010000D01*
X035702Y010000D01*
X030702Y010000D01*
X031702Y011000D01*
X030702Y010000D02*
X027702Y010000D01*
X017702Y010000D01*
X016702Y011000D01*
X015702Y010000D01*
X012702Y010000D01*
X011702Y011000D02*
X009702Y013000D01*
X007202Y013000D01*
X007202Y016000D01*
X005702Y016000D01*
X003202Y018500D01*
X003202Y022500D01*
X008202Y022500D01*
X004202Y026500D01*
X003702Y026000D01*
X004202Y026500D02*
X004702Y027000D01*
X012702Y027000D01*
X017702Y027000D01*
X022702Y027000D01*
X027702Y027000D01*
X032702Y027000D01*
X037702Y027000D01*
X042702Y027000D01*
X043702Y026000D01*
X044702Y026000D01*
X045702Y027000D01*
X050702Y027000D01*
X055452Y027000D01*
X053702Y028000D02*
X053202Y027500D01*
X045202Y027500D01*
X044702Y027000D01*
X043702Y027000D01*
X041702Y029000D01*
X033702Y029000D01*
X027702Y029000D01*
X025702Y029000D01*
X027702Y027000D02*
X028702Y026000D01*
X032702Y027000D02*
X033702Y026000D01*
X034702Y027500D02*
X018702Y027500D01*
X017702Y027000D02*
X018702Y026000D01*
X022702Y027000D02*
X023702Y026000D01*
X013702Y026000D02*
X012702Y027000D01*
X011202Y023500D02*
X008702Y026000D01*
X011202Y023500D02*
X011202Y022500D01*
X008202Y022500D01*
X008202Y019500D02*
X007202Y019500D01*
X006202Y018500D01*
X005202Y019500D01*
X004202Y019500D01*
X008202Y019500D02*
X009202Y019500D01*
X010202Y018500D01*
X011202Y019500D01*
X012202Y019500D01*
X013202Y019500D01*
X014202Y018500D01*
X015202Y019500D01*
X016202Y019500D01*
X017202Y019500D01*
X018202Y018500D01*
X019202Y018500D01*
X020202Y019500D01*
X021202Y019500D01*
X022202Y018500D01*
X037202Y018500D01*
X038202Y019500D01*
X039202Y019500D01*
X040202Y018500D01*
X041202Y019500D01*
X042202Y019500D01*
X043202Y019500D01*
X044202Y018500D01*
X038202Y021500D02*
X051702Y021500D01*
X052202Y022000D01*
X054202Y021000D02*
X054702Y021500D01*
X054702Y025000D01*
X051202Y025000D01*
X050702Y025500D01*
X050702Y027000D01*
X048702Y028000D02*
X052702Y028000D01*
X052702Y028500D01*
X058202Y028500D01*
X059202Y027500D01*
X057702Y028000D02*
X057702Y026500D01*
X058202Y026000D01*
X059202Y026000D01*
X059202Y017000D01*
X058202Y016000D01*
X058284Y015827D01*
X056119Y014173D02*
X056202Y014000D01*
X055702Y013500D01*
X047202Y013000D02*
X015202Y013000D01*
X011702Y008000D02*
X006202Y008000D01*
X003702Y008000D01*
X003702Y005500D01*
X006702Y011000D02*
X005702Y012000D01*
X005702Y013000D01*
X007202Y013000D01*
X023702Y008000D02*
X026202Y008000D01*
X029202Y008000D01*
X038202Y008000D01*
X039702Y009500D01*
X042702Y010000D02*
X046202Y010000D01*
X048202Y008000D01*
X046202Y010500D02*
X044202Y010500D01*
X042702Y010000D02*
X042702Y005500D01*
X036702Y011000D02*
X035702Y010000D01*
X027702Y010000D02*
X026702Y011000D01*
X046202Y010500D02*
X046702Y011000D01*
X056119Y019134D02*
X056202Y019500D01*
X054202Y019500D01*
X054202Y021000D01*
X054702Y020000D02*
X057702Y020000D01*
X058202Y019500D01*
X058284Y019134D01*
X057702Y028000D02*
X053702Y028000D01*
X052702Y028500D02*
X052702Y031500D01*
X045702Y031000D02*
X045202Y031000D01*
X044702Y031500D01*
X038702Y026000D02*
X037702Y027000D01*
D19*
X042202Y030000D02*
X032702Y030000D01*
X028702Y030000D01*
X024702Y030000D01*
X012702Y030000D01*
X008202Y030000D01*
X007952Y030250D01*
X007702Y030000D01*
X004702Y030000D01*
X004702Y031500D01*
X007952Y030250D02*
X008702Y031000D01*
X008702Y031500D01*
X012702Y031500D02*
X012702Y030000D01*
X024702Y030000D02*
X024702Y031500D01*
X028702Y031500D02*
X028702Y030000D01*
X032702Y030000D02*
X032702Y031500D01*
X043702Y031500D02*
X043702Y030000D01*
X046702Y030000D01*
X046952Y030250D01*
X047202Y030000D01*
X051702Y030000D01*
X051702Y031500D01*
X047702Y031500D02*
X047702Y031000D01*
X046952Y030250D01*
X046702Y029000D02*
X046202Y028500D01*
X046702Y029000D02*
X050202Y029000D01*
X051702Y026000D02*
X056702Y026000D01*
X058202Y024500D01*
X053202Y021500D02*
X052202Y020500D01*
X035702Y020500D01*
X034702Y019500D01*
X027702Y019500D01*
X028702Y007000D02*
X024702Y007000D01*
X012702Y007000D01*
X008202Y007000D01*
X007952Y006750D01*
X007702Y007000D01*
X004702Y007000D01*
X004702Y005500D01*
X007952Y006750D02*
X008702Y006000D01*
X008702Y005500D01*
X012702Y005500D02*
X012702Y007000D01*
X024702Y007000D02*
X024702Y005500D01*
X028702Y005500D02*
X028702Y007000D01*
X032702Y007000D01*
X032702Y005500D01*
X043702Y005500D02*
X043702Y007000D01*
X046702Y007000D01*
X046952Y006750D01*
X047202Y007000D01*
X051702Y007000D01*
X053202Y007000D01*
X053702Y007500D01*
X051702Y007000D02*
X051702Y005500D01*
X047702Y005500D02*
X047702Y006000D01*
X046952Y006750D01*
M02*
