%
M48
M72
T01C0.0320
T02C0.0360
T03C0.0394
T04C0.0400
%
T01
X3926Y2277
X2351Y4108
X2351Y5108
X3926Y6277
X3926Y6970
X2351Y7258
X2351Y8258
X5926Y8439
X6676Y8939
X5926Y9439
X3926Y10970
X3895Y11695
X2851Y11695
X1851Y11695
X7895Y11695
X9044Y10939
X9044Y6939
X9044Y6214
X6719Y4608
X5969Y4108
X5969Y5108
X9044Y2214
X41903Y4214
X43903Y4214
X43903Y5789
X41903Y5789
X47107Y5915
X49107Y5915
X49107Y4065
X47107Y4065
X47265Y17600
X48111Y17600
X49111Y17600
X49111Y19175
X48111Y19175
X47265Y19175
X47586Y20915
X46086Y20915
X44586Y20915
X43265Y19175
X43265Y17600
X17603Y24246
X15603Y24246
X6895Y24246
X4895Y24246
T02
X17655Y20856
X18655Y20856
X19655Y20856
X20655Y20856
X21655Y20856
X22655Y20856
X23655Y20856
X24655Y20856
X25655Y20856
X26655Y20856
X27655Y20856
X28655Y20856
X29655Y20856
X30655Y20856
X31655Y20856
X32655Y20856
X33655Y20856
X34655Y20856
X35655Y20856
X36655Y20856
X36655Y19856
X35655Y19856
X34655Y19856
X33655Y19856
X32655Y19856
X31655Y19856
X30655Y19856
X29655Y19856
X28655Y19856
X27655Y19856
X26655Y19856
X25655Y19856
X24655Y19856
X23655Y19856
X22655Y19856
X21655Y19856
X20655Y19856
X19655Y19856
X18655Y19856
X17655Y19856
X25410Y16525
X26410Y16525
X27410Y16525
X28410Y16525
X29410Y16525
X30410Y16525
X31410Y16525
X32410Y16525
X33410Y16525
X34410Y16525
X34410Y15525
X33410Y15525
X32410Y15525
X31410Y15525
X30410Y15525
X29410Y15525
X28410Y15525
X27410Y15525
X26410Y15525
X25410Y15525
X25410Y10620
X26410Y10620
X27410Y10620
X28410Y10620
X29410Y10620
X30410Y10620
X31410Y10620
X32410Y10620
X33410Y10620
X34410Y10620
X34410Y9620
X33410Y9620
X32410Y9620
X31410Y9620
X30410Y9620
X29410Y9620
X28410Y9620
X27410Y9620
X26410Y9620
X25410Y9620
X25655Y3533
X26655Y3533
X27655Y3533
X28655Y3533
X29655Y3533
X30655Y3533
X31655Y3533
X32655Y3533
X33655Y3533
X34655Y3533
X35655Y3533
X36655Y3533
X36655Y2533
X35655Y2533
X34655Y2533
X33655Y2533
X32655Y2533
X31655Y2533
X30655Y2533
X29655Y2533
X28655Y2533
X27655Y2533
X26655Y2533
X25655Y2533
X24655Y2533
X23655Y2533
X22655Y2533
X21655Y2533
X20655Y2533
X19655Y2533
X18655Y2533
X17655Y2533
X17655Y3533
X18655Y3533
X19655Y3533
X20655Y3533
X21655Y3533
X22655Y3533
X23655Y3533
X24655Y3533
X45438Y4061
X45438Y5061
T03
X44674Y23714
X47076Y23714
X45895Y25604
X28851Y24246
X27851Y24246
X26851Y24246
X25851Y24246
X24851Y24246
X23851Y24246
X22851Y24246
X21851Y24246
X20851Y24246
X19851Y24246
X8895Y23246
X8895Y22246
X8895Y21246
X8895Y20246
X8895Y19246
X8895Y18246
X8895Y17246
X8895Y16246
X8895Y15246
X8895Y14246
X8895Y13246
X2895Y13246
X2895Y14246
X2895Y15246
X2895Y16246
X2895Y17246
X2895Y18246
X2895Y19246
X2895Y20246
X2895Y21246
X2895Y22246
X2895Y23246
T04
X42288Y1789
X43288Y1789
X44288Y1789
X46895Y1789
X47895Y1789
X48895Y1789
M30
